<?xml version="1.0" encoding="UTF-8"?>
<svg version="1.1" xmlns="http://www.w3.org/2000/svg" width="1024" height="1024">
<path d="M0 0 C337.92 0 675.84 0 1024 0 C1024 337.92 1024 675.84 1024 1024 C686.08 1024 348.16 1024 0 1024 C0 686.08 0 348.16 0 0 Z " fill="#1A1C26" transform="translate(0,0)"/>
<path d="M0 0 C-1.11979242 1.11979242 -2.24027567 2.23889873 -3.36328125 3.35546875 C-4.59997791 4.5980685 -5.82446294 5.85283833 -7.04296875 7.11328125 C-7.75066406 7.83902344 -8.45835937 8.56476563 -9.1875 9.3125 C-9.86167969 10.00988281 -10.53585937 10.70726562 -11.23046875 11.42578125 C-13 13 -13 13 -15 13 C-15 13.66 -15 14.32 -15 15 C-16.49985504 16.47985077 -16.49985504 16.47985077 -18.55529785 18.18640137 C-22.60047281 21.62861749 -26.37710832 25.24747111 -30.11523438 29.01757812 C-30.77654861 29.68035263 -31.43786285 30.34312714 -32.11921692 31.02598572 C-33.54054857 32.45109348 -34.96072501 33.87735418 -36.37983704 35.30467224 C-38.63179056 37.56950817 -40.88695696 39.8311015 -43.14294434 42.09191895 C-47.93145493 46.89180066 -52.71602019 51.69560304 -57.5 56.5 C-63.048127 62.0718054 -68.59790145 67.641949 -74.15193176 73.20787048 C-76.36292687 75.42530078 -78.57086441 77.64574414 -80.77868652 79.86633301 C-82.14722973 81.23851207 -83.51591541 82.61054907 -84.88476562 83.98242188 C-85.48863602 84.59145859 -86.09250641 85.2004953 -86.7146759 85.82798767 C-90.40433355 89.51809376 -94.21955362 92.99999616 -98.18810272 96.38892365 C-99.95879973 97.96336615 -101.5832317 99.60861785 -103.1953125 101.34375 C-103.92814453 102.12878906 -103.92814453 102.12878906 -104.67578125 102.9296875 C-105.66115108 103.99739282 -106.63477542 105.0760327 -107.59765625 106.1640625 C-109.0703125 107.71875 -109.0703125 107.71875 -112 110 C-117.55487243 109.73290344 -122.57459023 107.34449639 -127.66015625 105.265625 C-129.09808533 104.68677048 -129.09808533 104.68677048 -130.56506348 104.09622192 C-133.73314603 102.81969483 -136.89781267 101.53491866 -140.0625 100.25 C-144.56147431 98.43235 -149.06198753 96.61852507 -153.5625 94.8046875 C-154.72842178 94.33410919 -155.89434357 93.86353088 -157.09559631 93.37869263 C-165.11160731 90.14798892 -173.14392071 86.96158099 -181.18940926 83.80525208 C-183.04658647 83.07655645 -184.9033534 82.34681542 -186.76011658 81.61706543 C-193.93963532 78.79525959 -193.93963532 78.79525959 -201.12405396 75.98596191 C-204.44058845 74.69201989 -207.75377065 73.38982201 -211.06640625 72.0859375 C-212.55968445 71.50756638 -212.55968445 71.50756638 -214.08312988 70.91751099 C-214.98454712 70.56107513 -215.88596436 70.20463928 -216.81469727 69.83740234 C-217.99745995 69.37495621 -217.99745995 69.37495621 -219.20411682 68.90316772 C-221 68 -221 68 -222 66 C-190.83660489 55.85439653 -190.83660489 55.85439653 -177.6796875 52.0703125 C-173.83185295 50.95109098 -170.00880418 49.76835892 -166.1875 48.5625 C-160.14040915 46.65523053 -154.07596093 44.81316037 -148 43 C-141.48514498 41.05432329 -134.98435727 39.07332971 -128.49780273 37.03515625 C-113.55318479 32.34317698 -98.58600172 27.72493441 -83.54833984 23.33984375 C-78.5829148 21.88304635 -73.63033175 20.3850753 -68.6796875 18.87890625 C-67.19362251 18.42692871 -67.19362251 18.42692871 -65.67753601 17.96582031 C-57.94651153 15.60783812 -50.23156193 13.20051381 -42.51953125 10.78125 C-39.10255232 9.71369155 -35.68526398 8.64713069 -32.26782227 7.58105469 C-29.92920602 6.84937994 -27.59166738 6.11425342 -25.25512695 5.37597656 C-21.82529987 4.29329629 -18.39167201 3.2235451 -14.95703125 2.15625 C-13.91239212 1.82306763 -12.86775299 1.48988525 -11.79145813 1.14660645 C-10.82491806 0.84879272 -9.85837799 0.550979 -8.86254883 0.24414062 C-8.01702957 -0.02120483 -7.17151031 -0.28655029 -6.30036926 -0.55993652 C-3.82649293 -1.03319212 -2.36193046 -0.80457141 0 0 Z " fill="#C1C5CA" transform="translate(743,460)"/>
<path d="M0 0 C4.16807545 0.74909225 8.18114275 1.88596925 12.22900391 3.11035156 C12.94187246 3.32398189 13.65474102 3.53761221 14.38921165 3.75771618 C16.7523253 4.46649703 19.11444075 5.17854615 21.4765625 5.890625 C23.14504304 6.39179934 24.81358263 6.89277715 26.48217773 7.39356995 C30.94075171 8.73237 35.39845513 10.07404643 39.85596466 11.41638565 C44.48475958 12.80987811 49.11426019 14.20102253 53.74365234 15.5925293 C61.83333816 18.02459838 69.92228479 20.45911446 78.01076317 22.89519596 C82.6696715 24.29836111 87.3287974 25.70079753 91.98828125 27.10205078 C135.39713808 40.15762668 178.77114123 53.35930163 222 67 C218.65596408 69.81699246 215.03912487 71.36590977 211.0078125 72.93359375 C210.31863739 73.20728287 209.62946228 73.48097198 208.91940308 73.76295471 C206.65677608 74.66007826 204.3909173 75.54872369 202.125 76.4375 C200.53490689 77.06642721 198.94506612 77.69599274 197.35546875 78.32617188 C194.11725459 79.60926794 190.87793358 80.88950489 187.63769531 82.16748047 C181.08238831 84.75488858 174.54167356 87.37834712 168 90 C166.81422363 90.4734082 165.62844727 90.94681641 164.40673828 91.43457031 C158.26227681 93.8877603 152.12284041 96.35240547 145.99194336 98.83932495 C142.78075697 100.14113656 139.56771059 101.43832081 136.35449219 102.73510742 C134.79955839 103.36407847 133.24550153 103.99522234 131.69238281 104.62866211 C129.5262905 105.51190249 127.35726613 106.38754993 125.1875 107.26171875 C124.54820557 107.52466232 123.90891113 107.7876059 123.25024414 108.05851746 C115.93022675 110.98780456 115.93022675 110.98780456 112 111 C109.72850311 109.34867386 108.11035431 107.90982305 106.234375 105.8828125 C105.45516693 105.08518997 105.45516693 105.08518997 104.66021729 104.27145386 C103.00621694 102.5717149 101.37799107 100.84963201 99.75 99.125 C98.10277417 97.41294167 96.45067609 95.70573416 94.79693604 93.99996948 C93.77029228 92.93745476 92.74843385 91.87029135 91.73187256 90.79812622 C89.14746748 88.03744507 89.14746748 88.03744507 86 86 C86 85.34 86 84.68 86 84 C85.34 84 84.68 84 84 84 C83.46375 83.319375 82.9275 82.63875 82.375 81.9375 C80.47194272 79.58371863 78.84728345 77.93994024 76.56640625 76.02734375 C71.51909697 71.66224192 66.83530029 66.94861243 62.1388855 62.21405029 C60.52546486 60.58766731 58.90876729 58.96460304 57.29125977 57.34228516 C53.27758899 53.31536577 49.26943165 49.28297337 45.2611084 45.25073242 C41.86194276 41.8317138 38.46065133 38.41483601 35.05661011 35.00067139 C33.47712934 33.41478994 31.90073203 31.82588904 30.32446289 30.23681641 C25.55398233 25.44224113 20.74584854 20.75032323 15.59509277 16.36213684 C13.47808764 14.55431053 11.47785075 12.64572921 9.5 10.6875 C8.8296875 10.03136719 8.159375 9.37523437 7.46875 8.69921875 C6 7 6 7 6 5 C5.38125 4.731875 4.7625 4.46375 4.125 4.1875 C2 3 2 3 0 0 Z " fill="#E4E5E5" transform="translate(281,459)"/>
<path d="M0 0 C3.14121737 3.14121737 5.22371265 5.62027639 7.58203125 9.26953125 C8.25927246 10.31181885 8.93651367 11.35410645 9.63427734 12.42797852 C10.36042462 13.55610532 11.08649701 14.68428034 11.8125 15.8125 C12.56933733 16.98070295 13.32666849 18.1485861 14.08447266 19.31616211 C15.63654557 21.70866442 17.18615801 24.10273213 18.73388672 26.49804688 C21.47339114 30.73533337 24.23315231 34.95931595 26.9934082 39.18310547 C31.88801236 46.67330418 36.76698523 54.17352176 41.625 61.6875 C42.06368408 62.36578857 42.50236816 63.04407715 42.9543457 63.74291992 C44.78396498 66.57210005 46.61350294 69.40132901 48.44091797 72.23193359 C53.73381813 80.42666584 59.05297855 88.60190898 64.4765625 96.7109375 C64.86555222 97.29277802 65.25454193 97.87461853 65.65531921 98.47409058 C67.56007696 101.32176635 69.46819667 104.16706183 71.38110352 107.00927734 C75.24701845 112.7764977 79.00233286 118.58481188 82.6484375 124.4921875 C89.5276029 135.60725295 96.96655345 146.35179229 104.3293457 157.14941406 C110.850302 166.72080863 117.31759251 176.31241995 123.41015625 186.1640625 C123.87876572 186.91408539 124.34737518 187.66410828 124.83018494 188.43685913 C128 193.63799049 128 193.63799049 128 197 C115.85170847 190.39613775 103.72624445 183.75211992 91.625 177.0625 C82.54289072 172.04194584 73.4436287 167.05608926 64.3125 162.125 C56.19988024 157.74340597 48.11960887 153.30997522 40.06640625 148.8203125 C33.95923127 145.41681486 27.8413086 142.03276774 21.7215271 138.65200806 C20.41936664 137.93240633 19.11746132 137.2123427 17.81582642 136.49179077 C15.97681811 135.47382921 14.13694883 134.45744021 12.296875 133.44140625 C11.22791992 132.85045166 10.15896484 132.25949707 9.05761719 131.65063477 C6.07108469 130.03837461 3.03562306 128.51781153 0 127 C0 85.09 0 43.18 0 0 Z " fill="#D7D8D9" transform="translate(515,537)"/>
<path d="M0 0 C0.33 0 0.66 0 1 0 C1.18690434 16.47223679 1.32796488 32.94412955 1.41449738 49.41717052 C1.45574461 57.06599057 1.51197407 64.71415172 1.60351562 72.36254883 C1.68326842 79.02916108 1.73486868 85.69529619 1.75270796 92.36237222 C1.76313624 95.89267153 1.7876274 99.42160591 1.84584045 102.95146751 C1.91030892 106.89262792 1.91191834 110.8324547 1.90820312 114.77416992 C1.93696533 115.94373734 1.96572754 117.11330475 1.99536133 118.3183136 C1.91628703 126.05130201 1.91628703 126.05130201 -0.74606323 128.80782509 C-2.78886302 130.10518684 -4.76539647 131.08153136 -7 132 C-7.90105469 132.51304687 -8.80210937 133.02609375 -9.73046875 133.5546875 C-10.54128906 133.99039063 -11.35210937 134.42609375 -12.1875 134.875 C-13.12094238 135.37845947 -14.05438477 135.88191895 -15.01611328 136.40063477 C-16.0007959 136.92842529 -16.98547852 137.45621582 -18 138 C-20.14326068 139.15488943 -22.28648894 140.30983905 -24.4296875 141.46484375 C-26.06502441 142.34438721 -26.06502441 142.34438721 -27.73339844 143.24169922 C-32.86896935 146.00600279 -37.99707911 148.78403829 -43.125 151.5625 C-44.11886719 152.10068359 -45.11273438 152.63886719 -46.13671875 153.19335938 C-53.67212059 157.27544473 -61.19738623 161.37588255 -68.71801758 165.48510742 C-73.41661987 168.05092144 -78.11993175 170.60748456 -82.83203125 173.1484375 C-84.82552881 174.22394355 -86.81901835 175.29946447 -88.8125 176.375 C-90.2823938 177.16716919 -90.2823938 177.16716919 -91.78198242 177.9753418 C-97.20735009 180.90994238 -102.60334526 183.8907876 -107.96875 186.93359375 C-109.11239014 187.58086426 -110.25603027 188.22813477 -111.43432617 188.89501953 C-113.64872063 190.15192884 -115.85995095 191.41443274 -118.06762695 192.68310547 C-119.06238037 193.24787598 -120.05713379 193.81264648 -121.08203125 194.39453125 C-122.40037964 195.15020386 -122.40037964 195.15020386 -123.74536133 195.92114258 C-126 197 -126 197 -129 197 C-128.30140869 195.95473145 -127.60281738 194.90946289 -126.88305664 193.83251953 C-113.82956928 174.29683098 -100.80287728 154.74751094 -87.98876953 135.05371094 C-84.4593728 129.63440154 -80.91595841 124.22425878 -77.375 118.8125 C-67.43839588 103.61714624 -57.51395542 88.41391242 -47.625 73.1875 C-38.07851023 58.49120118 -28.4813216 43.82789987 -18.8671875 29.17578125 C-18.0053575 27.8619067 -17.143541 26.5480233 -16.28173828 25.23413086 C-14.6326571 22.71997406 -12.98243401 20.20657215 -11.33154297 17.69360352 C-8.17383767 12.8814686 -5.02354895 8.07184113 -2.015625 3.1640625 C-1.01789063 1.59785156 -1.01789063 1.59785156 0 0 Z " fill="#FCFDFC" transform="translate(508,536)"/>
<path d="M0 0 C0.86399918 0.34638519 0.86399918 0.34638519 1.74545288 0.69976807 C20.2695243 8.12365338 38.81495421 15.49315524 57.36450195 22.85308838 C63.37712582 25.23875389 69.38958893 27.6248243 75.40192795 30.01120758 C78.111347 31.08649831 80.82080001 32.16170165 83.53087425 33.23534012 C84.79848582 33.73932852 86.06493734 34.24624576 87.33013344 34.75626755 C90.60789265 36.07414457 93.89489143 37.32847721 97.22625732 38.50500488 C97.91556524 38.75717899 98.60487316 39.0093531 99.3150692 39.26916885 C101.22692679 39.96703729 103.14675495 40.64295722 105.06698608 41.31744385 C108 43 108 43 109.38299561 45.97984314 C110.06042213 49.29575855 110.55806238 52.56091362 110.9296875 55.92578125 C111.04221359 56.90901367 111.04221359 56.90901367 111.15701294 57.91210938 C111.31760453 59.31536171 111.47564815 60.71890762 111.63134766 62.12271118 C112.83053521 72.90022907 114.16749333 83.62182407 116 94.3125 C118.01352807 106.14753759 119.30750665 118.03853203 120.51757812 129.9777832 C121.34815556 138.02460424 122.4457835 145.94685685 123.91392517 153.90289307 C125.09085955 160.32372656 125.90861564 166.76183713 126.625 173.25 C126.86540642 175.38041007 127.10752791 177.51062748 127.3515625 179.640625 C127.50359131 181.01009277 127.50359131 181.01009277 127.65869141 182.40722656 C127.99590835 184.96891751 128.48863238 187.46836826 129 190 C129.11678799 192.67678073 129.0454506 195.31841457 129 198 C125.67432202 194.01446148 122.87094236 189.83337557 120.08984375 185.46484375 C119.10728581 183.93429778 118.12401971 182.40420625 117.14013672 180.87451172 C116.6263446 180.07519226 116.11255249 179.2758728 115.58319092 178.45233154 C112.93463495 174.34977052 110.25161922 170.27003573 107.56640625 166.19140625 C107.00765305 165.34268951 106.44889984 164.49397278 105.87321472 163.61953735 C104.10373547 160.93335722 102.33318368 158.24788631 100.5625 155.5625 C99.94514984 154.62555298 99.32779968 153.68860596 98.69174194 152.7232666 C91.56883619 141.91421529 84.42472006 131.11979503 77.234375 120.35546875 C76.60712021 119.41623062 75.97986542 118.47699249 75.33360291 117.5092926 C72.34746994 113.03946197 69.35802626 108.57189483 66.36352539 104.10766602 C60.08042135 94.72543061 53.97458684 85.25841442 48.03164673 75.6574707 C45.72096143 71.94506307 43.33111546 68.2842335 40.9375 64.625 C40.40350586 63.80596191 39.86951172 62.98692383 39.31933594 62.14306641 C37.54801102 59.42753952 35.77420053 56.71364886 34 54 C32.66275805 51.95312655 31.32551856 49.90625149 29.98828125 47.859375 C28.57553261 45.69790897 27.162772 43.53645076 25.75 41.375 C25.04617188 40.29750488 24.34234375 39.22000977 23.6171875 38.10986328 C20.20799853 32.89358839 16.79309629 27.68138648 13.35806274 22.48208618 C11.76549499 20.07073144 10.17624404 17.65719988 8.58728027 15.24346924 C7.8242193 14.08640178 7.05950306 12.93042413 6.29309082 11.77557373 C5.23167755 10.1759996 4.1762321 8.57247024 3.12109375 6.96875 C2.5170874 6.05544922 1.91308105 5.14214844 1.29077148 4.20117188 C0 2 0 2 0 0 Z " fill="#FCFCFB" transform="translate(520,532)"/>
<path d="M0 0 C-0.57105469 0.85078125 -1.14210938 1.7015625 -1.73046875 2.578125 C-7.7272203 11.53233391 -13.62490056 20.54786199 -19.48828125 29.58984375 C-21.95846622 33.39871867 -24.43577905 37.20284358 -26.91796875 41.00390625 C-27.57708252 42.01324219 -28.23619629 43.02257812 -28.9152832 44.0625 C-30.18028121 45.99900125 -31.44571205 47.93521986 -32.71166992 49.87109375 C-35.62916135 54.33874002 -38.52612405 58.817419 -41.3828125 63.32421875 C-45.12790299 69.22391151 -48.95467964 75.06879727 -52.79101562 80.90930176 C-54.88319534 84.09467918 -56.97266604 87.28183331 -59.0625 90.46875 C-59.48160645 91.10774231 -59.90071289 91.74673462 -60.33251953 92.40509033 C-64.22985046 98.34806452 -68.11753797 104.29730109 -72 110.25 C-72.54914063 111.09143555 -73.09828125 111.93287109 -73.6640625 112.79980469 C-76.24023717 116.75105837 -78.81128012 120.7054949 -81.36865234 124.66894531 C-88.4283933 135.60753155 -95.56133829 146.49678384 -102.72558594 157.3671875 C-104.63116722 160.25936022 -106.53436426 163.15309263 -108.4375 166.046875 C-123.9303268 189.57970957 -123.9303268 189.57970957 -128 195 C-128.33 195 -128.66 195 -129 195 C-128.45486946 182.0320314 -126.82580264 169.31233891 -125.015625 156.46875 C-124.7147035 154.30389488 -124.41423722 152.13897643 -124.11419678 149.97399902 C-123.48574584 145.44845084 -122.85334594 140.9234792 -122.21777344 136.39892578 C-121.41745107 130.70086026 -120.62464514 125.00178271 -119.83443451 119.30230713 C-114.44341524 80.43464531 -114.44341524 80.43464531 -111.48686981 61.15019226 C-111.18288051 59.1655994 -110.883618 57.18028427 -110.58453369 55.19494629 C-110.31210846 53.45392639 -110.31210846 53.45392639 -110.03417969 51.67773438 C-109.88132507 50.69107788 -109.72847046 49.70442139 -109.57098389 48.68786621 C-108.98456686 45.92734958 -108.2188745 43.5449537 -107 41 C-104.87255859 39.63232422 -104.87255859 39.63232422 -102.1484375 38.5546875 C-100.56482422 37.91285522 -100.56482422 37.91285522 -98.94921875 37.25805664 C-97.76972656 36.80164795 -96.59023438 36.34523926 -95.375 35.875 C-94.1230842 35.37580396 -92.87180193 34.87501675 -91.62109375 34.37280273 C-88.76173146 33.22920161 -85.89769303 32.09834054 -83.03027344 30.97509766 C-77.29547346 28.72754364 -71.57402705 26.44670417 -65.8515625 24.16796875 C-34.83109735 11.83006526 -34.83109735 11.83006526 -22.5390625 7.14453125 C-16.88678311 4.98382997 -11.40366501 2.55043595 -5.8984375 0.0390625 C-3 -1 -3 -1 0 0 Z " fill="#D1D2D4" transform="translate(504,534)"/>
<path d="M0 0 C3.98122133 0.80541155 5.62683353 4.12829814 7.8125 7.29296875 C8.87626704 8.77216062 9.94007062 10.25132621 11.00390625 11.73046875 C11.83172607 12.90029297 11.83172607 12.90029297 12.67626953 14.09375 C14.91347114 17.23702147 17.20750352 20.33630932 19.50415039 23.4362793 C21.27638949 25.82859142 23.0414805 28.22602472 24.8046875 30.625 C28.90379838 36.20055196 33.00916025 41.77148751 37.11572266 47.34155273 C40.08651682 51.37179982 43.05400229 55.40441358 46.015625 59.44140625 C47.2185111 61.07960253 48.42163317 62.71762557 49.625 64.35546875 C50.20411133 65.14381104 50.78322266 65.93215332 51.37988281 66.74438477 C55.65320841 72.54381111 60.02763647 78.25459486 64.484375 83.9140625 C66.07943247 86.07925415 67.22101977 88.07314841 68.375 90.48046875 C64.16008858 89.27697883 59.94672521 88.06824238 55.73461914 86.85498047 C54.30663118 86.44441587 52.8782557 86.03519626 51.44946289 85.62744141 C43.83326278 83.45291075 36.31416345 81.17322738 28.89379883 78.38720703 C24.70183099 76.87814737 20.41968645 75.71982914 16.125 74.54296875 C8.60355783 72.44126176 1.20868897 70.14100889 -6.18359375 67.62109375 C-10.6186188 66.1511422 -15.09929058 64.89275969 -19.59765625 63.6328125 C-24.60720094 62.21525888 -29.58341216 60.68839919 -34.5625 59.16796875 C-35.54323486 58.86850342 -36.52396973 58.56903809 -37.53442383 58.26049805 C-39.55364722 57.64339039 -41.57277055 57.02595525 -43.59179688 56.40820312 C-48.49756202 54.90772763 -53.40492613 53.41251601 -58.3125 51.91796875 C-59.2624585 51.62833252 -60.21241699 51.33869629 -61.19116211 51.0402832 C-65.78627987 49.64101654 -70.383813 48.25102156 -74.98828125 46.8828125 C-82.51185567 44.64639923 -90.0070204 42.38630708 -97.4375 39.85546875 C-103.52331446 37.78958146 -109.65456979 36.11866322 -115.875 34.51171875 C-120.93208561 33.12102021 -125.86157874 31.4145194 -130.8203125 29.7109375 C-136.07932594 28.0101272 -141.4045743 26.68108991 -146.7734375 25.375 C-147.71445312 25.07980469 -148.65546875 24.78460938 -149.625 24.48046875 C-149.955 23.82046875 -150.285 23.16046875 -150.625 22.48046875 C-134.90868923 19.87285144 -119.18641938 17.35550961 -103.40625 15.1640625 C-102.40353058 15.02467192 -102.40353058 15.02467192 -101.3805542 14.88246536 C-95.94293224 14.12777395 -90.50422896 13.38100303 -85.06530762 12.63574219 C-69.08875741 10.44582773 -53.14642997 8.18145795 -37.27514648 5.30932617 C-31.0815344 4.18883456 -24.86621883 3.29517331 -18.625 2.48046875 C-17.94791992 2.39023437 -17.27083984 2.3 -16.57324219 2.20703125 C-8.26317663 1.23749529 -8.26317663 1.23749529 0 0 Z " fill="#EFEFEE" transform="translate(435.625,430.51953125)"/>
<path d="M0 0 C9.18007955 0.18208723 18.27030095 1.49489023 27.32421875 2.92578125 C28.54994095 3.11464401 29.77566315 3.30350677 31.03852844 3.49809265 C34.92236122 4.09760012 38.80494907 4.70475207 42.6875 5.3125 C46.50754158 5.90530279 50.32783091 6.49649031 54.14813232 7.08761597 C56.68095524 7.4795351 59.21371091 7.87188902 61.74639893 8.26467896 C79.5977558 11.02938951 97.45230289 13.7380871 115.375 16 C127.35225187 17.5493897 139.17642741 19.54654344 151 22 C151 22.66 151 23.32 151 24 C144.00039767 26.1471318 137.00030439 28.2926583 130 30.4375 C128.92510315 30.76691589 127.8502063 31.09633179 126.74273682 31.43572998 C113.43622738 35.51278386 100.12492591 39.5734788 86.8046875 43.60546875 C85.55455872 43.9840654 84.30442993 44.36266205 83.01641846 44.75273132 C76.9284213 46.59622859 70.83975083 48.43745066 64.75 50.27514648 C51.13169257 54.38097624 51.13169257 54.38097624 37.609375 58.7890625 C31.58269389 60.83311539 25.51818693 62.59447021 19.375 64.25 C6.41452812 67.8144273 -6.40480685 71.78709114 -19.22705078 75.81640625 C-25.70950443 77.8499856 -32.19873364 79.861674 -38.6875 81.875 C-40.46785645 82.42873291 -40.46785645 82.42873291 -42.28417969 82.99365234 C-44.50017421 83.6821505 -46.71708424 84.36771147 -48.93505859 85.04980469 C-50.9423116 85.67209469 -52.94549897 86.30769099 -54.94384766 86.95800781 C-56.28068604 87.38484863 -56.28068604 87.38484863 -57.64453125 87.8203125 C-58.41772705 88.07312988 -59.19092285 88.32594727 -59.98754883 88.58642578 C-62 89 -62 89 -65 88 C-64.64397705 87.51869629 -64.2879541 87.03739258 -63.92114258 86.54150391 C-57.40362344 77.72570719 -50.90471843 68.89819628 -44.5 60 C-38.32654083 51.42648177 -32.06682547 42.91847775 -25.78808594 34.421875 C-23.96293238 31.94979373 -22.1411143 29.47528799 -20.3203125 27 C-1.73227755 1.73227755 -1.73227755 1.73227755 0 0 Z " fill="#FDFDFC" transform="translate(586,431)"/>
<path d="M0 0 C0.33 0 0.66 0 1 0 C1 74.91 1 149.82 1 227 C-2.74462776 223.25537224 -5.4741696 220.13767631 -8.4375 215.875 C-9.31503362 214.62533707 -10.19402167 213.37669461 -11.07421875 212.12890625 C-11.5439209 211.46262207 -12.01362305 210.79633789 -12.49755859 210.10986328 C-15.20292612 206.31074301 -17.9779089 202.56306662 -20.75 198.8125 C-21.34079346 198.01271729 -21.93158691 197.21293457 -22.5402832 196.38891602 C-23.75220242 194.74868407 -24.96436237 193.10862997 -26.17675781 191.46875 C-27.98293262 189.02310998 -29.78515642 186.57461363 -31.5859375 184.125 C-37.07022116 176.66577072 -42.56937258 169.21878589 -48.125 161.8125 C-48.60300049 161.17183594 -49.08100098 160.53117188 -49.57348633 159.87109375 C-52.15492601 156.41929529 -54.77542136 153.00588651 -57.44921875 149.625 C-58.0117334 148.9033667 -58.57424805 148.1817334 -59.15380859 147.43823242 C-60.23419479 146.05363975 -61.32646722 144.67821455 -62.43212891 143.3137207 C-63.15601807 142.37919067 -63.15601807 142.37919067 -63.89453125 141.42578125 C-64.32612549 140.88348877 -64.75771973 140.34119629 -65.20239258 139.7824707 C-66.38997807 137.12848794 -65.8628782 135.76851323 -65 133 C-63.83704936 130.43679826 -62.63572404 127.94587298 -61.3515625 125.4453125 C-60.79909851 124.35085312 -60.79909851 124.35085312 -60.23547363 123.23428345 C-59.44649786 121.67243641 -58.65489193 120.11191572 -57.86090088 118.5526123 C-55.78030057 114.46580324 -53.7190667 110.3692436 -51.65625 106.2734375 C-51.24867462 105.46531616 -50.84109924 104.65719482 -50.4211731 103.82458496 C-47.23929731 97.50524931 -44.14840608 91.14676997 -41.125 84.75 C-37.51249532 77.11657272 -33.79586177 69.54396545 -30 62 C-24.69376973 51.44792452 -19.57312746 40.81599805 -14.50195312 30.14941406 C-11.62277792 24.11213186 -8.71629003 18.08797122 -5.8125 12.0625 C-5.22923459 10.85181313 -4.64598227 9.64111994 -4.06274414 8.43041992 C-2.70876651 5.6201495 -1.35452825 2.81000506 0 0 Z " fill="#FDFDFC" transform="translate(508,291)"/>
<path d="M0 0 C2.15377436 2.87169914 3.65947782 5.08439623 5.18554688 8.2199707 C5.59066498 9.04719131 5.99578308 9.87441193 6.41317749 10.72669983 C6.84401642 11.6173967 7.27485535 12.50809357 7.71875 13.42578125 C8.17319489 14.35696274 8.62763977 15.28814423 9.09585571 16.24754333 C10.5681046 19.26717058 12.0341909 22.28974217 13.5 25.3125 C14.50997932 27.38782897 15.52023356 29.46302416 16.53076172 31.53808594 C22.66749337 44.14947087 28.76791602 56.77764729 34.78564453 69.44628906 C36.55282164 73.16254812 38.32793008 76.87497534 40.10620117 80.5859375 C41.07292862 82.60334291 42.03795064 84.62156648 43.0012207 86.640625 C45.79944773 92.48699325 48.64236464 98.30721948 51.53688049 104.10641479 C53.21851043 107.47822792 54.88988612 110.85508418 56.56100464 114.2321167 C57.39181756 115.90362908 58.2276588 117.57265207 59.06863403 119.23907471 C60.25238072 121.58563086 61.41874346 123.94012504 62.58203125 126.296875 C63.12322601 127.35311569 63.12322601 127.35311569 63.675354 128.43069458 C65.0926937 131.33710492 66.02667077 133.49231086 65.85522461 136.75585938 C65.01027292 138.97304348 64.11572052 140.68493637 62.734375 142.609375 C62.26306152 143.27283936 61.79174805 143.93630371 61.30615234 144.61987305 C60.79262207 145.32281494 60.2790918 146.02575684 59.75 146.75 C59.21713379 147.4922583 58.68426758 148.2345166 58.13525391 148.99926758 C53.77585954 155.03236935 49.2632293 160.94559222 44.71557617 166.83740234 C40.9894475 171.67229237 37.39276697 176.57847825 33.86962891 181.5625 C29.2339255 188.11050035 24.45851072 194.55417046 19.6875 201.00390625 C17.13167641 204.45988981 14.59216946 207.92717283 12.0625 211.40234375 C11.1048877 212.71392456 11.1048877 212.71392456 10.12792969 214.05200195 C8.89621103 215.73961024 7.66758378 217.42948011 6.44238281 219.12182617 C5.6123877 220.25648315 5.6123877 220.25648315 4.765625 221.4140625 C4.03520996 222.41880615 4.03520996 222.41880615 3.29003906 223.44384766 C2 225 2 225 0 226 C0 151.42 0 76.84 0 0 Z " fill="#D3D5D8" transform="translate(515,291)"/>
<path d="M0 0 C-0.61786396 3.07481194 -1.61692058 5.24260459 -3.34375 7.8515625 C-3.83939453 8.60695313 -4.33503906 9.36234375 -4.84570312 10.140625 C-5.39162109 10.96046875 -5.93753906 11.7803125 -6.5 12.625 C-7.68750404 14.42968484 -8.87500383 16.23437248 -10.0625 18.0390625 C-10.69929688 19.00231445 -11.33609375 19.96556641 -11.9921875 20.95800781 C-15.51350788 26.29308222 -19.00409692 31.648252 -22.5 37 C-23.23151218 38.11847093 -23.96312028 39.23687912 -24.69482422 40.35522461 C-29.01528931 46.95925312 -33.32667514 53.56904143 -37.625 60.1875 C-48.27845299 76.59143399 -58.97249331 92.96887105 -69.68286133 109.33569336 C-72.96187679 114.34759102 -76.23770345 119.3613825 -79.49609375 124.38671875 C-87.24346273 136.32782023 -95.08456287 148.20602612 -102.96340942 160.06069946 C-104.15001249 161.84685703 -105.33546688 163.63377826 -106.51974487 165.42147827 C-108.19198282 167.94477193 -109.8688037 170.46495815 -111.546875 172.984375 C-112.05249466 173.74895523 -112.55811432 174.51353546 -113.07905579 175.30128479 C-113.5515123 176.00849167 -114.02396881 176.71569855 -114.51074219 177.44433594 C-114.92072449 178.0611322 -115.33070679 178.67792847 -115.75311279 179.31341553 C-117.03752702 181.05076039 -118.43582735 182.51337202 -120 184 C-120.99 183.67 -121.98 183.34 -123 183 C-123.99 183 -124.98 183 -126 183 C-126.3690205 173.58997722 -126.3690205 173.58997722 -124 169 C-122.95808023 172.38623926 -122.96136182 175.47426635 -123 179 C-122.65889191 178.48207382 -122.31778381 177.96414764 -121.96633911 177.43052673 C-118.36445427 171.96173609 -114.76197698 166.49333605 -111.15917969 161.02514648 C-109.82081645 158.99366786 -108.48259634 156.96209494 -107.14453125 154.93041992 C-94.48679634 135.71169592 -94.48679634 135.71169592 -88.5546875 126.84765625 C-84.27957322 120.45517145 -80.12305295 113.99138353 -76 107.5 C-71.2867892 100.10689001 -66.54574782 92.74055861 -61.65405273 85.46435547 C-54.60852162 74.97326405 -47.7957895 64.32628249 -40.93505859 53.71386719 C-34.84454825 44.29321198 -28.73735542 34.88358324 -22.58984375 25.5 C-20.38980608 22.14049085 -18.21244693 18.76922515 -16.06640625 15.375 C-15.6269165 14.69002441 -15.18742676 14.00504883 -14.73461914 13.29931641 C-13.94844913 12.07396699 -13.17178405 10.84242871 -12.40795898 9.60302734 C-9.78492275 5.55564452 -5.23147676 0 0 0 Z " fill="#23252B" transform="translate(499,549)"/>
<path d="M0 0 C0.33 1.32 0.66 2.64 1 4 C-0.25731934 4.38220703 -1.51463867 4.76441406 -2.81005859 5.15820312 C-8.66520274 6.93826404 -14.52014617 8.71898446 -20.375 10.5 C-21.43651276 10.82290009 -22.49802551 11.14580017 -23.59170532 11.47848511 C-36.08867276 15.28052046 -48.58210414 19.09268424 -61.06176758 22.95117188 C-67.78089911 25.02312674 -74.50958199 27.0622062 -81.2421875 29.08984375 C-82.15955185 29.36618652 -83.0769162 29.6425293 -84.02207947 29.92724609 C-84.95282791 30.20761719 -85.88357635 30.48798828 -86.8425293 30.77685547 C-88.7491903 31.35122337 -90.65584719 31.92560492 -92.5625 32.5 C-93.50147125 32.78280823 -94.4404425 33.06561646 -95.40786743 33.35699463 C-107.24252525 36.9240176 -119.04329904 40.56636749 -130.79858398 44.38793945 C-138.06778681 46.73860758 -145.38678012 48.86394282 -152.74438477 50.91918945 C-157.82556001 52.34730281 -162.82102858 53.90901871 -167.8125 55.625 C-173.08423221 57.41331137 -178.36893563 59.01897159 -183.75 60.4375 C-184.4303833 60.62586426 -185.1107666 60.81422852 -185.81176758 61.00830078 C-187.734375 61.49609375 -187.734375 61.49609375 -191 62 C-191.99 61.34 -192.98 60.68 -194 60 C-193.67 59.34 -193.34 58.68 -193 58 C-193.66 57.67 -194.32 57.34 -195 57 C-192.18822669 56.1018375 -189.37560195 55.206485 -186.5625 54.3125 C-185.79873047 54.06822266 -185.03496094 53.82394531 -184.24804688 53.57226562 C-178.87182236 51.86655584 -173.47245527 50.24961127 -168.05859375 48.66796875 C-158.50880434 45.8760341 -149.0042863 42.94246886 -139.5 40 C-130.31320035 37.15582306 -121.12856285 34.31256843 -111.89453125 31.625 C-101.46140187 28.58341501 -91.09512371 25.32576377 -80.71865845 22.09735107 C-62.39788414 16.40394432 -44.0676096 10.73708073 -25.68765259 5.23730469 C-23.77934795 4.66497331 -21.87208506 4.08915628 -19.96591187 3.50976562 C-17.34077005 2.71284498 -14.7121256 1.92883129 -12.08203125 1.1484375 C-11.31484772 0.91289154 -10.54766418 0.67734558 -9.75723267 0.43466187 C-6.07199793 -0.64252497 -3.66292494 -1.13710339 0 0 Z " fill="#262930" transform="translate(732,458)"/>
<path d="M0 0 C5.39953081 1.20186925 10.69849722 2.73894888 16 4.3125 C16.73782715 4.5305127 17.4756543 4.74852539 18.23583984 4.97314453 C23.69296634 6.59339276 29.12884577 8.27464493 34.55883789 9.98364258 C47.16698934 13.94707723 59.81402314 17.79316899 72.5 21.5 C87.05462674 25.75459238 101.55067046 30.20177132 116.00073242 34.79833984 C122.55889615 36.87750422 129.14478261 38.8573476 135.73779297 40.82275391 C142.04720861 42.70610648 148.33201363 44.65740871 154.61328125 46.6328125 C163.72260698 49.48476723 172.86546696 52.23010414 182 55 C181.67 56.32 181.34 57.64 181 59 C176.4600769 60.38731906 173.10929384 59.43396563 168.75 57.9921875 C168.01463516 57.75995987 167.27927032 57.52773224 166.5216217 57.28846741 C164.88857434 56.7715756 163.25718228 56.24943342 161.62722778 55.72286987 C157.94027231 54.53300027 154.24463655 53.37119789 150.54933167 52.20756531 C148.47249266 51.55356398 146.39603967 50.89833581 144.31993103 50.24201965 C130.66085109 45.92999021 116.95570318 41.76870786 103.25146103 37.60303116 C101.06160434 36.93722768 98.87191998 36.2708603 96.68228149 35.6043396 C63.82748588 25.60483481 30.91957794 15.7838067 -2 6 C-1.125 1.125 -1.125 1.125 0 0 Z " fill="#25272D" transform="translate(308,461)"/>
<path d="M0 0 C3.29754868 1.09918289 3.68224796 1.57152338 5.57421875 4.296875 C6.06881592 4.99780273 6.56341309 5.69873047 7.07299805 6.42089844 C7.60578369 7.18950195 8.13856934 7.95810547 8.6875 8.75 C13.71363639 15.86382761 18.87917604 22.84422015 24.1875 29.75 C29.39835208 36.54612366 34.49207423 43.39427806 39.4296875 50.390625 C42.64306689 54.92929645 45.94879192 59.40002905 49.25 63.875 C49.8289502 64.6602002 50.40790039 65.44540039 51.00439453 66.25439453 C51.56497559 67.01349121 52.12555664 67.77258789 52.703125 68.5546875 C53.24775391 69.29557617 53.79238281 70.03646484 54.35351562 70.79980469 C55.46563201 72.28592462 56.6005575 73.75520607 57.75585938 75.20800781 C58.30564453 75.90506836 58.85542969 76.60212891 59.421875 77.3203125 C59.9178418 77.93406738 60.41380859 78.54782227 60.92480469 79.18017578 C62 81 62 81 62 85 C61.34 85 60.68 85 60 85 C59.67 85.66 59.34 86.32 59 87 C52.12637944 78.27315361 45.28478972 69.54884324 38.89208984 60.46118164 C35.27515588 55.33779686 31.52261342 50.3220437 27.75 45.3125 C21.48772117 36.99481551 15.27464941 28.64353278 9.125 20.2421875 C7.21766021 17.63927052 5.28792364 15.05940137 3.3125 12.5078125 C2.57 11.53585937 1.8275 10.56390625 1.0625 9.5625 C0.12083984 8.35787109 0.12083984 8.35787109 -0.83984375 7.12890625 C-2 5 -2 5 -1.75390625 2.77734375 C-1 1 -1 1 0 0 Z " fill="#22252B" transform="translate(442,430)"/>
<path d="M0 0 C-0.21875 2.34765625 -0.21875 2.34765625 -1 5 C-6.16903919 8.71789499 -13.09282505 10.38625349 -19.07421875 12.41015625 C-27.16421009 15.21346431 -35.07448448 18.4249602 -42.98828125 21.6875 C-44.24152346 22.20262561 -45.49480945 22.71764473 -46.74813843 23.2325592 C-51.92924025 25.36309182 -57.10906655 27.49641671 -62.27905273 29.65380859 C-64.86385844 30.73191609 -67.45177656 31.80178232 -70.04374695 32.86254883 C-72.4650923 33.85378786 -74.88152935 34.85712196 -77.29231262 35.8737793 C-78.3783226 36.3150415 -79.46433258 36.75630371 -80.58325195 37.2109375 C-81.5356929 37.60587402 -82.48813385 38.00081055 -83.46943665 38.40771484 C-86 39 -86 39 -88.15104675 38.23681641 C-88.76120132 37.82866699 -89.3713559 37.42051758 -90 37 C-90.99 36.34 -91.98 35.68 -93 35 C-73.04051315 26.81745613 -53.02906065 18.7671571 -32.98750305 10.78791809 C-28.13037608 8.85320553 -23.27990248 6.9030546 -18.43359375 4.94140625 C-16.35168533 4.1064645 -14.26966588 3.2717995 -12.1875 2.4375 C-11.27000977 2.06157715 -10.35251953 1.6856543 -9.40722656 1.29833984 C-8.58577148 0.97172363 -7.76431641 0.64510742 -6.91796875 0.30859375 C-6.22469482 0.02814209 -5.5314209 -0.25230957 -4.81713867 -0.54125977 C-3 -1 -3 -1 0 0 Z " fill="#21242C" transform="translate(490,534)"/>
<path d="M0 0 C0.66 0.33 1.32 0.66 2 1 C1.50628906 1.48210937 1.01257813 1.96421875 0.50390625 2.4609375 C-0.45708984 3.40839844 -0.45708984 3.40839844 -1.4375 4.375 C-2.39462891 5.31472656 -2.39462891 5.31472656 -3.37109375 6.2734375 C-5.07882176 7.91723061 -5.07882176 7.91723061 -6 10 C-6.66 10 -7.32 10 -8 10 C-8 10.66 -8 11.32 -8 12 C-9.609375 13.5859375 -9.609375 13.5859375 -11.75 15.375 C-14.06903702 17.33757727 -16.25219284 19.2588295 -18.375 21.4375 C-20 23 -20 23 -22 23 C-22.2475 23.5775 -22.495 24.155 -22.75 24.75 C-24.18299988 27.32939979 -25.78424676 29.06121592 -28 31 C-28.66 31 -29.32 31 -30 31 C-30.433125 31.8971875 -30.433125 31.8971875 -30.875 32.8125 C-32 35 -32 35 -34 38 C-34.66 38 -35.32 38 -36 38 C-36 38.66 -36 39.32 -36 40 C-37.46875 41.48046875 -37.46875 41.48046875 -39.5 43.1875 C-40.221875 43.80109375 -40.94375 44.4146875 -41.6875 45.046875 C-42.8321875 46.01367188 -42.8321875 46.01367188 -44 47 C-45.50251281 48.30962265 -47.00265323 49.62197391 -48.5 50.9375 C-49.66666667 51.95833333 -50.83333333 52.97916667 -52 54 C-52.66 53.67 -53.32 53.34 -54 53 C-48.04275371 46.9964873 -42.08017966 40.99833953 -36.11065865 35.0070343 C-33.33917374 32.225096 -30.56958641 29.44132118 -27.80419922 26.65332031 C-25.13719592 23.964644 -22.46538804 21.28083114 -19.7901268 18.60037231 C-18.76847261 17.57501238 -17.74858522 16.54788898 -16.73047256 15.51901245 C-15.30818854 14.08228765 -13.87911243 12.65229615 -12.44970703 11.22265625 C-11.6369632 10.40547119 -10.82421936 9.58828613 -9.98684692 8.74633789 C-8 7 -8 7 -6 7 C-6 6.34 -6 5.68 -6 5 C-4.04072937 3.2856382 -2.04119788 1.61594832 0 0 Z " fill="#1F232A" transform="translate(734,468)"/>
<path d="M0 0 C-1.79036458 0.9765625 -3.58072917 1.953125 -5.37109375 2.9296875 C-7.16618315 3.91410024 -7.16618315 3.91410024 -8 6 C-7.34 6.33 -6.68 6.66 -6 7 C-9.1875 8.25 -9.1875 8.25 -13 9 C-15.73828125 7.046875 -15.73828125 7.046875 -18 5 C-15.75564555 3.96483652 -13.50593133 2.94685023 -11.25 1.9375 C-10.29867188 1.49567383 -10.29867188 1.49567383 -9.328125 1.04492188 C-3.48702331 -1.54098252 -3.48702331 -1.54098252 0 0 Z " fill="#25282F" transform="translate(415,564)"/>
<path d="M0 0 C-0.1875 2.375 -0.1875 2.375 -1 5 C-4.34157247 6.94925061 -7.18115446 7.21821974 -11 7 C-11 5.68 -11 4.36 -11 3 C-10.01 3 -9.02 3 -8 3 C-8 2.34 -8 1.68 -8 1 C-5.07175348 0.02391783 -3.04386724 -0.08226668 0 0 Z " fill="#21242A" transform="translate(719,461)"/>
<path d="M0 0 C0.33 0.99 0.66 1.98 1 3 C0.67 3.66 0.34 4.32 0 5 C-2.06640625 5.6328125 -2.06640625 5.6328125 -4.5625 6.125 C-5.38878906 6.29257812 -6.21507812 6.46015625 -7.06640625 6.6328125 C-7.70449219 6.75398438 -8.34257813 6.87515625 -9 7 C-8.67 5.02 -8.34 3.04 -8 1 C-5.07175348 0.02391783 -3.04386724 -0.08226668 0 0 Z " fill="#1D2027" transform="translate(640,485)"/>
<path d="M0 0 C3.55780196 0.60990891 6.6828589 1.5783681 10 3 C9.67 4.32 9.34 5.64 9 7 C9.66 7 10.32 7 11 7 C11.66 8.32 12.32 9.64 13 11 C10 11 10 11 7.8125 9.125 C6 7 6 7 6 5 C5.38125 4.731875 4.7625 4.46375 4.125 4.1875 C2 3 2 3 0 0 Z " fill="#D7D8DA" transform="translate(281,459)"/>
<path d="M0 0 C0.33 0 0.66 0 1 0 C1.02578125 0.97582031 1.0515625 1.95164062 1.078125 2.95703125 C1.13484375 4.22933594 1.1915625 5.50164062 1.25 6.8125 C1.29640625 8.07707031 1.3428125 9.34164063 1.390625 10.64453125 C1.67256221 14.07152839 1.67256221 14.07152839 4.046875 15.94921875 C4.69140625 16.29597656 5.3359375 16.64273437 6 17 C4.35830472 19.02054804 2.69088222 21.02043058 1 23 C0.67 23 0.34 23 0 23 C0 15.41 0 7.82 0 0 Z " fill="#B2B6BD" transform="translate(515,494)"/>
<path d="M0 0 C0.721875 0.12375 1.44375 0.2475 2.1875 0.375 C1.8575 1.035 1.5275 1.695 1.1875 2.375 C2.1775 2.705 3.1675 3.035 4.1875 3.375 C4.1875 4.035 4.1875 4.695 4.1875 5.375 C-3.84821429 7.65178571 -3.84821429 7.65178571 -7.8125 6.375 C-3.50480769 0.46730769 -3.50480769 0.46730769 0 0 Z " fill="#1F1F26" transform="translate(680.8125,471.625)"/>
<path d="M0 0 C3.68006822 3.38168431 5.9785845 6.42521756 8 11 C6.35 10.67 4.7 10.34 3 10 C2.67 10.66 2.34 11.32 2 12 C1.34 10.68 0.68 9.36 0 8 C0.66 8 1.32 8 2 8 C2 7.01 2 6.02 2 5 C1.34 5 0.68 5 0 5 C0 3.35 0 1.7 0 0 Z " fill="#27292F" transform="translate(611,674)"/>
<path d="M0 0 C0.99 0.33 1.98 0.66 3 1 C2.38125 1.2475 1.7625 1.495 1.125 1.75 C-1.11049208 2.80004165 -1.11049208 2.80004165 -1.875 4.8125 C-3.55805758 8.08511196 -6.11451985 9.74179814 -9 12 C-9.66 11.67 -10.32 11.34 -11 11 C-7.37 7.37 -3.74 3.74 0 0 Z " fill="#262A31" transform="translate(713,488)"/>
<path d="M0 0 C1.32 1.32 2.64 2.64 4 4 C3.67 4.66 3.34 5.32 3 6 C2.67 6 2.34 6 2 6 C1.67 10.95 1.34 15.9 1 21 C0.67 21 0.34 21 0 21 C0 14.07 0 7.14 0 0 Z " fill="#A5AAB4" transform="translate(515,537)"/>
<path d="M0 0 C-1.34710422 4.04131267 -3.38428334 4.90288434 -7 7 C-7.99 7 -8.98 7 -10 7 C-10 6.01 -10 5.02 -10 4 C-8.71086513 3.32845067 -7.41859796 2.66291141 -6.125 2 C-5.40570313 1.62875 -4.68640625 1.2575 -3.9453125 0.875 C-2 0 -2 0 0 0 Z " fill="#26272E" transform="translate(485,677)"/>
<path d="M0 0 C2.97 0.495 2.97 0.495 6 1 C6 2.32 6 3.64 6 5 C4.35 5 2.7 5 1 5 C0.67 3.35 0.34 1.7 0 0 Z " fill="#1C2026" transform="translate(454,506)"/>
<path d="M0 0 C-0.66 0.61875 -1.32 1.2375 -2 1.875 C-4.2284549 3.75637427 -4.2284549 3.75637427 -4 6 C-4.66 6 -5.32 6 -6 6 C-7.38232443 4.37373596 -8.71937515 2.7074998 -10 1 C-3.71428571 -1.42857143 -3.71428571 -1.42857143 0 0 Z " fill="#2F2F35" transform="translate(678,474)"/>
<path d="M0 0 C0.66 0.33 1.32 0.66 2 1 C-3.625 5.875 -3.625 5.875 -7 7 C-6.875 5.1875 -6.875 5.1875 -6 3 C-3.0625 1.1875 -3.0625 1.1875 0 0 Z " fill="#26282E" transform="translate(411,716)"/>
<path d="M0 0 C-1.6875 2.0625 -1.6875 2.0625 -4 4 C-6.75 3.75 -6.75 3.75 -9 3 C-7.14340032 -0.71319936 -3.69365381 -0.09982848 0 0 Z " fill="#DEDEE0" transform="translate(669,482)"/>
<path d="M0 0 C1.65 1.32 3.3 2.64 5 4 C4.67 4.66 4.34 5.32 4 6 C0.7 5.01 -2.6 4.02 -6 3 C-2 2 -2 2 0 2 C0 1.34 0 0.68 0 0 Z " fill="#BABCC0" transform="translate(499,515)"/>
<path d="M0 0 C1.32 0.66 2.64 1.32 4 2 C4 2.66 4 3.32 4 4 C2.02 4.33 0.04 4.66 -2 5 C-1.34 3.35 -0.68 1.7 0 0 Z " fill="#17191F" transform="translate(668,476)"/>
<path d="M0 0 C-0.625 1.875 -0.625 1.875 -2 4 C-5.125 5.25 -5.125 5.25 -8 6 C-8.33 5.34 -8.66 4.68 -9 4 C-2.25 0 -2.25 0 0 0 Z " fill="#25282D" transform="translate(442,700)"/>
<path d="M0 0 C3.96 0.33 7.92 0.66 12 1 C12 1.33 12 1.66 12 2 C8.37 2.33 4.74 2.66 1 3 C0.67 2.01 0.34 1.02 0 0 Z " fill="#434449" transform="translate(368,438)"/>
<path d="M0 0 C2.475 0.495 2.475 0.495 5 1 C5 1.66 5 2.32 5 3 C7.475 3.99 7.475 3.99 10 5 C9.01 5.495 9.01 5.495 8 6 C6.0546875 5.0390625 6.0546875 5.0390625 3.875 3.625 C3.15054688 3.16351562 2.42609375 2.70203125 1.6796875 2.2265625 C1.12539063 1.82179688 0.57109375 1.41703125 0 1 C0 0.67 0 0.34 0 0 Z " fill="#E4E4E7" transform="translate(537,674)"/>
<path d="M0 0 C0.99 0.33 1.98 0.66 3 1 C3.33 1.99 3.66 2.98 4 4 C2.35 4.33 0.7 4.66 -1 5 C-1 2 -1 2 0 0 Z " fill="#1C1F28" transform="translate(543,514)"/>
<path d="M0 0 C0.66 0.33 1.32 0.66 2 1 C1.67 1.33 1.34 1.66 1 2 C1.66 2.66 2.32 3.32 3 4 C2 5 2 5 -0.5625 5.0625 C-1.7690625 5.0315625 -1.7690625 5.0315625 -3 5 C-3 3.68 -3 2.36 -3 1 C-2.01 0.67 -1.02 0.34 0 0 Z " fill="#16181E" transform="translate(711,463)"/>
<path d="M0 0 C1 3 1 3 -0.4375 6.1875 C-1.2109375 7.5796875 -1.2109375 7.5796875 -2 9 C-2.66 9 -3.32 9 -4 9 C-3.46930939 5.17902761 -2.50298434 2.93828597 0 0 Z " fill="#222329" transform="translate(456,395)"/>
<path d="M0 0 C0.66 0.66 1.32 1.32 2 2 C-0.31 4.31 -2.62 6.62 -5 9 C-5 6 -5 6 -3 3 C-2.34 3 -1.68 3 -1 3 C-0.67 2.01 -0.34 1.02 0 0 Z " fill="#DCE0E3" transform="translate(706,492)"/>
<path d="M0 0 C0.66 0.66 1.32 1.32 2 2 C-1.96 1.67 -5.92 1.34 -10 1 C-10 0.67 -10 0.34 -10 0 C-6.31938873 -0.9464429 -3.66134991 -1.08850943 0 0 Z " fill="#383B40" transform="translate(602,431)"/>
<path d="M0 0 C0.66 0.33 1.32 0.66 2 1 C-3.75 6 -3.75 6 -6 6 C-6 5.01 -6 4.02 -6 3 C-4.03533587 1.93224776 -2.03144641 0.93446535 0 0 Z " fill="#292A31" transform="translate(459,690)"/>
<path d="M0 0 C-2.25 1.625 -2.25 1.625 -5 3 C-7.3125 2.1875 -7.3125 2.1875 -9 1 C-5.57367167 -0.61798838 -3.61944899 -1.34053666 0 0 Z " fill="#2B2E35" transform="translate(415,564)"/>
<path d="M0 0 C-2.6855594 2.6855594 -5.37621328 3.06049974 -9 4 C-9.33 3.34 -9.66 2.68 -10 2 C-6.49223216 0.39644899 -3.85645121 -0.22036864 0 0 Z " fill="#E3E2E6" transform="translate(695,474)"/>
</svg>
