<?xml version="1.0" encoding="UTF-8"?>
<svg version="1.1" xmlns="http://www.w3.org/2000/svg" width="500" height="500">
<path d="M0 0 C9.61529791 2.26761278 19.04347719 5.05544527 28.484375 7.9453125 C30.08486979 8.43279156 31.68544769 8.91999786 33.28610229 9.4069519 C36.67980789 10.43999083 40.07294929 11.47485422 43.46563721 12.51123047 C48.81261255 14.1445757 54.16084345 15.77378195 59.50927734 17.40234375 C66.68011981 19.58614891 73.85048902 21.77149995 81.02050781 23.95800781 C94.21881493 27.98251722 107.4214391 31.9927619 120.625 36 C122.84855224 36.67512753 125.07210368 37.35025772 127.2956543 38.02539062 C145.5207001 43.55760742 163.75323055 49.06497733 181.98876953 54.5625 C195.66587323 58.68645673 209.33580455 62.83346861 223 67 C223 68.32 223 69.64 223 71 C213.4980825 74.82021975 203.99410144 78.63087675 194.4375 82.3125 C185.75717035 85.66115744 177.1560903 89.19747081 168.54858398 92.72827148 C159.36462212 96.47993824 150.12526096 100.07092895 140.83984375 103.5637207 C134.93251623 105.80231199 129.16361931 108.21793529 123.44213867 110.89794922 C115.89228751 114.30492994 115.89228751 114.30492994 112 114 C110.18041992 112.83813477 110.18041992 112.83813477 108.35546875 111.12890625 C107.66348389 110.48679199 106.97149902 109.84467773 106.25854492 109.18310547 C105.5132251 108.46268066 104.76790527 107.74225586 104 107 C103.19989502 106.23187988 102.39979004 105.46375977 101.57543945 104.67236328 C99.02906172 102.19797582 96.51159017 99.69716114 94 97.1875 C93.12988281 96.32962891 92.25976562 95.47175781 91.36328125 94.58789062 C90.13158203 93.3590918 90.13158203 93.3590918 88.875 92.10546875 C88.12992187 91.36449951 87.38484375 90.62353027 86.6171875 89.86010742 C85 88 85 88 85 86 C83.515 85.505 83.515 85.505 82 85 C79.8125 83.0625 79.8125 83.0625 78 81 C78 80.34 78 79.68 78 79 C77.41366791 78.73931229 76.82733582 78.47862457 76.22323608 78.21003723 C73.85753721 76.922462 72.31701576 75.55187887 70.42822266 73.6394043 C69.74716461 72.9549675 69.06610657 72.2705307 68.3644104 71.56535339 C67.63829559 70.82577896 66.91218079 70.08620453 66.1640625 69.32421875 C65.40709076 68.56204544 64.65011902 67.79987213 63.87020874 67.01460266 C61.45034459 64.57693233 59.03725555 62.13269804 56.625 59.6875 C54.21906041 57.25385887 51.81165404 54.82171686 49.4012146 52.39253235 C47.90248534 50.88164102 46.40643682 49.36808434 44.91348267 47.85148621 C41.90722026 44.81666006 38.91512267 41.8548311 35.61083984 39.14379883 C33 37 33 37 31.125 34.625 C29.33755303 32.41697727 27.73650504 30.85796901 25.5859375 29.05078125 C19.9463136 24.17085312 14.74691765 18.85476772 9.5 13.5625 C8.47679861 12.5342702 7.45336267 11.50627374 6.4296875 10.47851562 C3.95042001 7.98835662 1.47432462 5.49507167 -1 3 C-0.67 2.01 -0.34 1.02 0 0 Z " fill="#E4E4E4" transform="translate(18,194)"/>
<path d="M0 0 C-1.42062515 3.2268998 -3.14245441 5.39942512 -5.625 7.890625 C-6.33140625 8.59960938 -7.0378125 9.30859375 -7.765625 10.0390625 C-8.50296875 10.76867187 -9.2403125 11.49828125 -10 12.25 C-10.73734375 12.99507812 -11.4746875 13.74015625 -12.234375 14.5078125 C-12.94078125 15.21164063 -13.6471875 15.91546875 -14.375 16.640625 C-15.02210938 17.28547852 -15.66921875 17.93033203 -16.3359375 18.59472656 C-18 20 -18 20 -20 20 C-20 20.66 -20 21.32 -20 22 C-21.47704212 23.25227484 -22.95827399 24.50166522 -24.4921875 25.68359375 C-26.26762944 27.11764091 -26.26762944 27.11764091 -28 30 C-28.66 30 -29.32 30 -30 30 C-30.66 31.32 -31.32 32.64 -32 34 C-32.66 34 -33.32 34 -34 34 C-34.33 34.99 -34.66 35.98 -35 37 C-35.66 37 -36.32 37 -37 37 C-37.24105469 37.5671875 -37.48210937 38.134375 -37.73046875 38.71875 C-40.71015381 44.07301485 -45.99569514 48.40566659 -50.75 52.1875 C-53.04922416 54.0396528 -54.73697442 56.09589792 -56.57894897 58.38938904 C-58.12131655 60.13749947 -59.76608759 61.58105501 -61.54931641 63.08227539 C-66.58175627 67.43506675 -71.22647739 72.13780475 -75.8984375 76.87109375 C-77.29784809 78.27991087 -78.69726436 79.68872241 -80.09702492 81.09719181 C-83.51733438 84.54032995 -86.9319775 87.98907257 -90.34423828 91.44018555 C-92.27331278 93.39080537 -94.20499396 95.33877422 -96.13955688 97.28395081 C-97.95563942 99.11040918 -99.76758815 100.94098873 -101.57504272 102.77598572 C-102.38994171 103.59426346 -103.2048407 104.4125412 -104.04443359 105.25561523 C-104.76198822 105.98062729 -105.47954285 106.70563934 -106.21884155 107.45262146 C-108 109 -108 109 -110 109 C-110 109.66 -110 110.32 -110 111 C-113.1524477 112.71301427 -114.56791079 113.10380175 -118.11181641 112.25244141 C-119.26343262 111.79015137 -120.41504883 111.32786133 -121.6015625 110.8515625 C-122.23750336 110.60135345 -122.87344421 110.35114441 -123.52865601 110.09335327 C-125.5675158 109.28642824 -127.595893 108.45610132 -129.625 107.625 C-130.93428963 107.10394293 -132.24418247 106.58439889 -133.5546875 106.06640625 C-140.04848573 103.48440978 -146.49552808 100.79688233 -152.9276886 98.06539917 C-162.53324286 93.98777105 -172.21064288 90.14971004 -181.96408081 86.44070435 C-186.1974426 84.83064898 -190.42679017 83.21011585 -194.65625 81.58984375 C-195.47330917 81.27703964 -196.29036835 80.96423553 -197.13218689 80.64195251 C-206.12778937 77.19309946 -215.07675545 73.6319578 -224 70 C-223.72886658 68.09120178 -223.72886658 68.09120178 -223 66 C-220.09329318 64.841697 -217.3883183 63.97733827 -214.37890625 63.18359375 C-212.52991846 62.66328022 -210.68113011 62.14225758 -208.83251953 61.62060547 C-207.86727356 61.35415222 -206.90202759 61.08769897 -205.90753174 60.81317139 C-201.28058382 59.51911788 -196.68699832 58.11816834 -192.08984375 56.72265625 C-190.12975065 56.13227785 -188.16954191 55.54228323 -186.20922852 54.95263672 C-158.21991634 46.51947746 -130.26852341 37.96563728 -102.32421875 29.38476562 C-99.14584669 28.40881067 -95.96746066 27.43290123 -92.7890625 26.45703125 C-91.62768642 26.10043615 -91.62768642 26.10043615 -90.44284821 25.73663712 C-74.79155364 20.93145749 -59.13270633 16.15125178 -43.46386719 11.40356445 C-35.81616929 9.08501565 -28.17453033 6.75245429 -20.5546875 4.34375 C-19.30824463 3.95179443 -18.06180176 3.55983887 -16.77758789 3.15600586 C-14.56856908 2.4588879 -12.3617572 1.7547098 -10.15795898 1.04125977 C-8.77459351 0.60511353 -8.77459351 0.60511353 -7.36328125 0.16015625 C-6.19212769 -0.21677368 -6.19212769 -0.21677368 -4.99731445 -0.60131836 C-3 -1 -3 -1 0 0 Z " fill="#C1C5CA" transform="translate(481,195)"/>
<path d="M0 0 C4.19609346 1.39869782 5.34430888 4.37157122 7.5 8 C8.40108165 9.47863445 9.30346696 10.95647509 10.20703125 12.43359375 C10.67061035 13.19526855 11.13418945 13.95694336 11.61181641 14.74169922 C13.74866306 18.21792707 15.96309572 21.64186052 18.1875 25.0625 C18.63416016 25.75085938 19.08082031 26.43921875 19.54101562 27.1484375 C24.1638099 34.26536073 28.80486507 41.3704397 33.44311523 48.47729492 C37.22269503 54.26969719 40.99430433 60.06708247 44.75 65.875 C45.18755615 66.55159668 45.6251123 67.22819336 46.07592773 67.92529297 C48.30962203 71.38088336 50.5404754 74.83829097 52.76953125 78.296875 C57.4658848 85.57778244 62.19918811 92.82920396 67.02362061 100.02592468 C70.37231456 105.03249172 73.65862251 110.07780706 76.93359375 115.1328125 C83.36445426 125.04151854 89.84733389 134.91530172 96.35049438 144.77667236 C98.23350233 147.63226276 100.11518069 150.48872653 101.99682617 153.34521484 C107.59802622 161.84371692 113.20814255 170.33548564 118.8828125 178.78515625 C119.31513687 179.42963211 119.74746124 180.07410797 120.19288635 180.7381134 C122.1466354 183.64946944 124.10516792 186.55737144 126.07299805 189.45922852 C126.735979 190.44463623 127.39895996 191.43004395 128.08203125 192.4453125 C128.65155518 193.28594238 129.2210791 194.12657227 129.80786133 194.99267578 C131 197 131 197 131 199 C125.18046492 198.5517688 121.5392213 196.90949817 116.6875 193.75 C111.7683327 190.61145502 106.8007196 187.84417017 101.56030273 185.27294922 C97.37400452 183.1915762 93.28498938 180.93740542 89.1875 178.6875 C88.25808594 178.17896484 87.32867187 177.67042969 86.37109375 177.14648438 C77.15219451 172.09660305 67.95203721 167.01256996 58.75170898 161.92895508 C51.43159074 157.88542631 44.09819493 153.86732106 36.75 149.875 C25.49762475 143.75971646 14.33249653 137.49081528 3.17285156 131.20825195 C1.79748054 130.44345294 0.40756896 129.70378448 -1 129 C-3.34356306 116.10650438 -2.16402876 102.03056806 -2.16796875 88.984375 C-2.1711862 86.47568747 -2.17455063 83.96700013 -2.17805481 81.45831299 C-2.18401093 76.230505 -2.18589794 71.00271348 -2.18530273 65.77490234 C-2.184698 59.73183311 -2.19534267 53.68885199 -2.2110464 47.64580512 C-2.22566716 41.81092448 -2.22929196 35.97607907 -2.22869301 30.14118195 C-2.22987555 27.66434617 -2.23431256 25.18750978 -2.24202538 22.71068573 C-2.25176184 19.26635708 -2.24897436 15.82226164 -2.24291992 12.37792969 C-2.24853943 11.35048141 -2.25415894 10.32303314 -2.25994873 9.26445007 C-2.25575424 8.33113358 -2.25155975 7.39781708 -2.24723816 6.43621826 C-2.24778293 5.62294445 -2.24832769 4.80967064 -2.24888897 3.97175217 C-2 2 -2 2 0 0 Z " fill="#D4D5D6" transform="translate(252,272)"/>
<path d="M0 0 C0.99 0.33 1.98 0.66 3 1 C3.07003799 17.50691012 3.12296254 34.01377214 3.15543652 50.52079487 C3.17091459 58.18505631 3.19202196 65.8492255 3.22631836 73.51342773 C3.25619207 80.19246884 3.27556816 86.87144315 3.28226548 93.55054921 C3.28618122 97.08809278 3.29540297 100.62544523 3.31719017 104.16292763 C3.34129777 108.10906214 3.3419713 112.05500858 3.34057617 116.0012207 C3.351362 117.17797867 3.36214783 118.35473663 3.3732605 119.56715393 C3.36913651 120.63987549 3.36501251 121.71259705 3.36076355 122.81782532 C3.36352893 123.75160161 3.36629431 124.6853779 3.36914349 125.64745045 C2.92445984 128.48141705 2.2320379 129.25977378 0 131 C-2.25161809 132.47254111 -4.50041405 133.87973399 -6.8125 135.25 C-7.47757568 135.64695068 -8.14265137 136.04390137 -8.82788086 136.45288086 C-14.27296294 139.66038157 -19.84289968 142.48025696 -25.5234375 145.25 C-30.36138725 147.68528257 -35.02526326 150.38859649 -39.7109375 153.1015625 C-45.6990841 156.55790365 -51.78029877 159.83507959 -57.8984375 163.0546875 C-59.32815999 163.8072252 -60.75784645 164.55983134 -62.1875 165.3125 C-62.91356445 165.6945459 -63.63962891 166.0765918 -64.38769531 166.47021484 C-69.32978012 169.08295796 -74.20707828 171.79259238 -79.0625 174.5625 C-85.07829366 177.99265569 -91.19606064 181.13561071 -97.41113281 184.18725586 C-101.9526853 186.43267604 -106.30269238 188.87741534 -110.609375 191.55078125 C-114.27883968 193.77524432 -118.06385332 195.77886131 -121.84765625 197.80078125 C-123.91552852 198.82434972 -123.91552852 198.82434972 -125 200 C-126.66617115 200.04063832 -128.33388095 200.042721 -130 200 C-128.57010319 195.95353943 -126.61392707 192.79973299 -124.125 189.3125 C-123.30972439 188.15728852 -122.49600681 187.00097639 -121.68359375 185.84375 C-121.24901855 185.225 -120.81444336 184.60625 -120.36669922 183.96875 C-117.92395841 180.44994653 -115.55737682 176.88061182 -113.1875 173.3125 C-112.6824292 172.55243652 -112.1773584 171.79237305 -111.65698242 171.00927734 C-110.62199659 169.45132895 -109.58724869 167.89322247 -108.55273438 166.33496094 C-107.02368006 164.03560945 -105.48940258 161.73984292 -103.953125 159.4453125 C-98.57214901 151.40471371 -93.25052941 143.3309937 -88.01245117 135.1965332 C-84.60040989 129.90518184 -81.12967443 124.65575141 -77.61083984 119.43481445 C-74.61079841 114.96856291 -71.72467041 110.43432997 -68.84277344 105.89111328 C-65.84927465 101.19463571 -62.79857759 96.53583688 -59.75 91.875 C-55.31958213 85.09214786 -50.89497559 78.30587647 -46.5 71.5 C-41.49015112 63.74195632 -36.4438202 56.00789196 -31.38867188 48.27929688 C-27.79217297 42.77397655 -24.23829986 37.24390891 -20.71435547 31.69189453 C-17.98234222 27.4020657 -15.21136074 23.13784509 -12.4375 18.875 C-11.89931641 18.04613281 -11.36113281 17.21726562 -10.80664062 16.36328125 C-7.24302645 10.88277715 -3.63807252 5.43135034 0 0 Z " fill="#F9F9F8" transform="translate(245,271)"/>
<path d="M0 0 C4.70262212 0.60628178 8.82790179 1.94516836 13.1875 3.73828125 C13.87407181 4.0148909 14.56064362 4.29150055 15.26802063 4.57649231 C17.51431499 5.48291773 19.75709627 6.3977208 22 7.3125 C23.57681267 7.95033626 25.15388334 8.58753506 26.73120117 9.22412109 C29.94606504 10.52225814 33.15975495 11.82323757 36.37255859 13.12646484 C43.00963037 15.81662215 49.66132697 18.46995379 56.3125 21.125 C58.73963944 22.09621398 61.16672274 23.06756825 63.59375 24.0390625 C68.10780187 25.84492516 72.62317756 27.64738466 77.14021301 29.44577026 C79.87364963 30.53421658 82.60656709 31.623963 85.33944702 32.71380615 C86.63234106 33.22898002 87.92548413 33.74352943 89.21890259 34.25738525 C92.12956091 35.41381554 95.03605554 36.57871457 97.93603516 37.76171875 C99.87186745 38.54407265 101.818629 39.30035097 103.77880859 40.01953125 C104.58785645 40.33277344 105.3969043 40.64601563 106.23046875 40.96875 C106.91906982 41.22076172 107.6076709 41.47277344 108.31713867 41.73242188 C112.20448295 44.66047809 112.21938272 50.09055831 112.89794922 54.60522461 C113.20622532 56.87011841 113.50806581 59.13589417 113.8046875 61.40234375 C114.05045784 63.22742966 114.05045784 63.22742966 114.30119324 65.08938599 C114.74055938 68.36133125 115.17472257 71.63391301 115.60640335 74.90687943 C116.05682362 78.31210683 116.51412648 81.71641045 116.97045898 85.12084961 C118.85618151 99.21214385 120.70602909 113.30790341 122.48510742 127.41308594 C123.51211788 135.46448699 124.62334196 143.50216913 125.7578125 151.5390625 C125.91557663 152.65782272 126.07334076 153.77658295 126.23588562 154.929245 C127.0275723 160.53638109 127.82404421 166.14278603 128.62719727 171.74829102 C131.46765281 191.69599402 131.46765281 191.69599402 132 201 C128.16015625 200.20214844 128.16015625 200.20214844 126.71875 198.3828125 C126.3165625 197.63773438 125.914375 196.89265625 125.5 196.125 C122.55450977 190.92576346 119.44590756 185.86012444 116.25 180.8125 C115.72728516 179.98580811 115.20457031 179.15911621 114.66601562 178.30737305 C110.31507468 171.44982452 105.84423094 164.67984342 101.30810547 157.94384766 C91.8796928 143.93320532 82.57579768 129.84444028 73.5625 115.5625 C70.61208992 110.91019852 67.56365551 106.32803649 64.5 101.75 C59.68261375 94.55093256 54.9193136 87.31810462 50.1875 80.0625 C49.57777344 79.12825195 48.96804688 78.19400391 48.33984375 77.23144531 C45.32103981 72.59659687 42.32595259 67.9482941 39.36328125 63.27734375 C36.63334597 58.97751424 33.84558825 54.72388346 31 50.5 C28.19922122 46.3219094 25.42706085 42.13396044 22.75 37.875 C17.56282656 29.65475379 12.10002382 21.61183857 6.69482422 13.53417969 C4.12548486 9.69238444 1.56248837 5.84636705 -1 2 C-0.67 1.34 -0.34 0.68 0 0 Z " fill="#F6F6F6" transform="translate(256,268)"/>
<path d="M0 0 C-1.79722651 3.96184186 -4.25610676 7.47314951 -6.6875 11.0625 C-13.92752836 21.74634098 -13.92752836 21.74634098 -20.56640625 32.8046875 C-21.03949219 33.52914062 -21.51257813 34.25359375 -22 35 C-22.66 35 -23.32 35 -24 35 C-24.22558594 35.83015625 -24.45117188 36.6603125 -24.68359375 37.515625 C-26.27504339 41.72800803 -28.5064145 45.06952611 -31.0625 48.75 C-34.24575154 53.24608553 -34.24575154 53.24608553 -37 58 C-37.66 58 -38.32 58 -39 58 C-39.20625 58.825 -39.4125 59.65 -39.625 60.5 C-41.13145679 64.33461728 -43.09391551 66.98683414 -45.66015625 70.16796875 C-47.19150174 72.06654568 -47.19150174 72.06654568 -48 75 C-48.66 75 -49.32 75 -50 75 C-50.20625 75.825 -50.4125 76.65 -50.625 77.5 C-52.0920038 81.23419149 -53.94573061 83.71146862 -56.40234375 86.83203125 C-58.98572091 90.33759195 -60.98480034 94.14793693 -63 98 C-63.66 98 -64.32 98 -65 98 C-65.25394531 98.69867188 -65.50789063 99.39734375 -65.76953125 100.1171875 C-67.91843684 105.15176632 -71.01203607 109.66335931 -73.92431641 114.28369141 C-74.96595464 115.94567887 -75.98917136 117.61916788 -77.01171875 119.29296875 C-77.62660156 120.28941406 -78.24148437 121.28585937 -78.875 122.3125 C-79.42929688 123.21613281 -79.98359375 124.11976563 -80.5546875 125.05078125 C-81.03164062 125.69402344 -81.50859375 126.33726562 -82 127 C-82.66 127 -83.32 127 -84 127 C-84.08378906 127.52078125 -84.16757813 128.0415625 -84.25390625 128.578125 C-85.29173323 131.94698743 -87.09145714 134.77672743 -88.9375 137.75 C-89.29779297 138.35199219 -89.65808594 138.95398438 -90.02929688 139.57421875 C-90.96079133 141.08725394 -91.97461836 142.54894869 -93 144 C-93.66 144 -94.32 144 -95 144 C-95.22558594 144.83015625 -95.45117188 145.6603125 -95.68359375 146.515625 C-97.27504339 150.72800803 -99.5064145 154.06952611 -102.0625 157.75 C-105.24575154 162.24608553 -105.24575154 162.24608553 -108 167 C-108.66 167 -109.32 167 -110 167 C-110.24363281 167.68835938 -110.48726562 168.37671875 -110.73828125 169.0859375 C-112.21996159 172.50802275 -114.1393778 175.5255913 -116.1875 178.625 C-116.99505024 179.86311263 -117.80233857 181.10139614 -118.609375 182.33984375 C-119.21168945 183.25999268 -119.21168945 183.25999268 -119.82617188 184.19873047 C-121.55229355 186.84750869 -123.24498269 189.51716282 -124.9375 192.1875 C-126.60102169 194.81059449 -128.27690471 197.41535707 -130 200 C-130.99 199.67 -131.98 199.34 -133 199 C-132.34581864 189.1080577 -130.99748398 179.36317968 -129.5625 169.5625 C-129.34278529 168.04106089 -129.12338281 166.51957666 -128.90429688 164.99804688 C-127.97235904 158.54682745 -127.02150255 152.0997153 -126.01171875 145.66015625 C-124.77471042 137.67763536 -123.70796494 129.67225419 -122.62731934 121.66738892 C-121.97382836 116.83116454 -121.31474212 111.99570178 -120.65625 107.16015625 C-120.52071716 106.16451157 -120.38518433 105.16886688 -120.24554443 104.14305115 C-118.88317984 94.13701103 -117.52022492 84.13107429 -116.13806152 74.12774658 C-115.88157821 72.26705251 -115.62642738 70.40617422 -115.37268066 68.54510498 C-115.01759898 65.94233152 -114.6577904 63.34025131 -114.296875 60.73828125 C-114.14406067 59.60657753 -114.14406067 59.60657753 -113.98815918 58.45201111 C-113.6861511 56.29598047 -113.35155868 54.14847992 -113 52 C-112.81506989 50.78906425 -112.81506989 50.78906425 -112.62640381 49.55366516 C-111.53665975 43.49785283 -111.53665975 43.49785283 -109.06542969 41.20532227 C-108.27555664 40.89135498 -107.48568359 40.5773877 -106.671875 40.25390625 C-105.77146484 39.87637207 -104.87105469 39.49883789 -103.94335938 39.10986328 C-102.48639648 38.56048096 -102.48639648 38.56048096 -101 38 C-100.02353516 37.59894043 -99.04707031 37.19788086 -98.04101562 36.78466797 C-94.79196743 35.46172377 -91.52459978 34.19580066 -88.25 32.9375 C-86.38461211 32.21239315 -84.51923278 31.48726353 -82.65431213 30.76095581 C-81.36611949 30.25927169 -80.07773673 29.75807548 -78.78916931 29.25735474 C-72.03053632 26.62931871 -65.29448794 23.94550969 -58.5625 21.25 C-57.35722656 20.76740723 -56.15195313 20.28481445 -54.91015625 19.78759766 C-44.18046676 15.48646079 -33.46426182 11.151896 -22.75 6.8125 C-21.92420441 6.47827026 -21.09840881 6.14404053 -20.24758911 5.79968262 C-17.90947429 4.85305849 -15.57183949 3.90525988 -13.234375 2.95703125 C-12.53064255 2.67219376 -11.8269101 2.38735626 -11.10185242 2.09388733 C-3.42048472 -1.02614542 -3.42048472 -1.02614542 0 0 Z " fill="#D0D1D3" transform="translate(243,269)"/>
<path d="M0 0 C0 76.23 0 152.46 0 231 C-5 230 -5 230 -6.57666016 228.24560547 C-7.01800293 227.50197754 -7.4593457 226.75834961 -7.9140625 225.9921875 C-8.4184082 225.17717773 -8.92275391 224.36216797 -9.44238281 223.52246094 C-9.95639648 222.69004883 -10.47041016 221.85763672 -11 221 C-12.03489802 219.51318144 -13.08423503 218.036299 -14.1484375 216.5703125 C-14.67445557 215.84376465 -15.20047363 215.1172168 -15.74243164 214.36865234 C-16.2811792 213.62824707 -16.81992676 212.8878418 -17.375 212.125 C-17.94661865 211.33689941 -18.5182373 210.54879883 -19.10717773 209.73681641 C-20.23561177 208.18144618 -21.36473463 206.6265754 -22.49462891 205.07226562 C-23.73258053 203.36812463 -24.96646289 201.66102832 -26.19921875 199.953125 C-32.44471688 191.31155526 -38.87419119 182.8071985 -45.28759766 174.29003906 C-49.89556059 168.16982478 -54.46782632 162.02969664 -58.93359375 155.8046875 C-60.43327414 153.76920447 -61.95359066 151.78967439 -63.53515625 149.8203125 C-63.95603516 149.28728516 -64.37691406 148.75425781 -64.81054688 148.20507812 C-65.9999776 146.70390892 -67.20466867 145.21486829 -68.41015625 143.7265625 C-70 141 -70 141 -69.96875 138.63671875 C-68.65278569 135.05496106 -67.09854046 131.61852081 -65.4375 128.1875 C-65.07672363 127.43251221 -64.71594727 126.67752441 -64.34423828 125.8996582 C-61.06545491 119.06731314 -57.68270901 112.28817275 -54.27099609 105.52148438 C-44.47829646 86.09409256 -34.87924695 66.59376744 -25.6015625 46.9140625 C-24.8386925 45.29680384 -24.07567531 43.67961461 -23.3125 42.0625 C-22.94890381 41.29156006 -22.58530762 40.52062012 -22.21069336 39.72631836 C-19.47453273 33.94709756 -16.62986899 28.22758776 -13.75073242 22.51855469 C-10.58510845 16.22106055 -7.42872687 9.88192843 -4.9921875 3.26171875 C-3.76398582 0.46199917 -3.03756259 0 0 0 Z " fill="#F9F9F8" transform="translate(248,25)"/>
<path d="M0 0 C0.93229935 0.11715363 1.86459869 0.23430725 2.82514954 0.35501099 C3.84618271 0.49067474 4.86721588 0.6263385 5.91918945 0.76611328 C6.98908615 0.90443573 8.05898285 1.04275818 9.16130066 1.18527222 C21.91386763 2.85895118 34.6293177 4.7806465 47.3449707 6.71142578 C49.93518575 7.1022868 52.52543717 7.49290685 55.11572266 7.88330078 C68.13798039 9.84772655 81.1571489 11.83234095 94.17517281 13.82461166 C96.22735423 14.13865655 98.27956057 14.45253822 100.33177185 14.76638794 C106.82403404 15.75947374 113.31591938 16.75493244 119.80712891 17.75488281 C122.15697627 18.1154372 124.50682948 18.47595356 126.85668945 18.83642578 C127.91032684 18.99956268 128.96396423 19.16269958 130.04953003 19.33078003 C134.5738724 20.02327154 139.08368037 20.6655926 143.63720703 21.13330078 C147.5324707 21.58642578 147.5324707 21.58642578 149.5324707 22.58642578 C149.2024707 23.90642578 148.8724707 25.22642578 148.5324707 26.58642578 C147.9876001 26.72105225 147.44272949 26.85567871 146.88134766 26.99438477 C131.86206421 30.73639054 117.10416474 35.11621284 102.34379578 39.76699829 C95.00675801 42.07442057 87.64517918 44.30006431 80.2824707 46.52392578 C78.88752585 46.94561584 77.49258772 47.36732817 76.09765625 47.7890625 C73.99541467 48.42453047 71.89313532 49.05987237 69.79075623 49.69488525 C65.03034142 51.13284542 60.27123329 52.57505752 55.51293945 54.02001953 C43.87495769 57.5532602 32.23547756 61.08085264 20.58325195 64.56689453 C19.73739532 64.81996368 18.8915387 65.07303284 18.02005005 65.33377075 C17.17046722 65.58794769 16.3208844 65.84212463 15.44555664 66.10400391 C-2.55996668 71.49110806 -20.53505472 76.96026984 -38.4675293 82.58642578 C-39.88775391 83.03091064 -39.88775391 83.03091064 -41.33666992 83.484375 C-49.9999481 86.19672435 -58.64655371 88.9273917 -67.2175293 91.92236328 C-69.4675293 92.58642578 -69.4675293 92.58642578 -72.4675293 92.58642578 C-72.02041368 87.80842551 -69.74438733 85.10069778 -66.6550293 81.64892578 C-63.27185343 77.79876236 -60.28068362 73.87703131 -57.4675293 69.58642578 C-55.68809127 67.14470637 -53.85740563 64.74239093 -52.0300293 62.33642578 C-47.60137447 56.47174674 -43.25403454 50.55571921 -38.9675293 44.58642578 C-34.40995884 38.24466393 -29.78696912 31.95990386 -25.0793457 25.72875977 C-22.24636163 21.97442288 -19.4458659 18.19909482 -16.67456055 14.39892578 C-16.03703857 13.5261499 -15.3995166 12.65337402 -14.74267578 11.75415039 C-13.49528986 10.04390303 -12.25119928 8.33124633 -11.01074219 6.6159668 C-10.16564087 5.45859009 -10.16564087 5.45859009 -9.3034668 4.27783203 C-8.55395752 3.24444702 -8.55395752 3.24444702 -7.78930664 2.19018555 C-5.35637005 -0.76178351 -3.57514665 -0.45746559 0 0 Z " fill="#F7F7F6" transform="translate(328.467529296875,166.41357421875)"/>
<path d="M0 0 C3 1 3 1 4.41943359 3.33129883 C4.90750488 4.36279053 5.39557617 5.39428223 5.8984375 6.45703125 C6.45362061 7.61831543 7.00880371 8.77959961 7.58081055 9.97607422 C8.17914022 11.25475814 8.77719613 12.53357018 9.375 13.8125 C9.99897088 15.12813951 10.62373795 16.44340167 11.24926758 17.75830078 C13.18204191 21.8314914 15.09378312 25.9143248 17 30 C17.29295959 30.62755188 17.58591919 31.25510376 17.88775635 31.90167236 C20.36904525 37.21982591 22.8403525 42.54256503 25.30297852 47.86938477 C28.76195143 55.35103467 32.25914718 62.81269168 35.8125 70.25 C36.22008545 71.10513184 36.6276709 71.96026367 37.04760742 72.84130859 C40.56608544 80.18195744 44.21825471 87.45494411 47.86434937 94.73266602 C51.16714275 101.3267148 54.45933959 107.92562345 57.72119141 114.54003906 C58.58366501 116.28342786 59.45063227 118.02459986 60.32177734 119.76367188 C61.60077353 122.31881464 62.86433748 124.88108484 64.125 127.4453125 C64.51550537 128.21722931 64.90601074 128.98914612 65.30834961 129.78445435 C67.36702739 134.01542076 68.57661353 137.18047572 68 142 C66.92578125 143.921875 66.92578125 143.921875 65.3125 145.75 C61.45606393 150.36985301 57.93682596 155.1707225 54.4375 160.0625 C50.7462765 165.21253367 47.02707173 170.33080907 43.18383789 175.36889648 C41.93131556 177.00116775 41.93131556 177.00116775 41 179 C40.34 179 39.68 179 39 179 C38.76023437 179.70640625 38.52046875 180.4128125 38.2734375 181.140625 C36.79072165 184.46991336 34.90315039 186.90415518 32.625 189.75 C28.45816177 195.03342672 24.49460069 200.43273883 20.625 205.9375 C20.12564941 206.64680664 19.62629883 207.35611328 19.11181641 208.08691406 C16.93578837 211.19133181 14.80403969 214.30237972 12.7734375 217.50390625 C12.18820312 218.32761719 11.60296875 219.15132812 11 220 C10.34 220 9.68 220 9 220 C8.731875 220.721875 8.46375 221.44375 8.1875 222.1875 C6.97688703 225.05474124 5.87058614 227.50588515 4 230 C1.39453125 230.640625 1.39453125 230.640625 -1 231 C-1.0227901 201.71638319 -1.04049804 172.43276702 -1.05106533 143.14914316 C-1.0523161 139.69553879 -1.05361042 136.24193443 -1.05493164 132.78833008 C-1.05519395 132.10075099 -1.05545626 131.4131719 -1.05572652 130.70475709 C-1.06008327 119.55713832 -1.06797084 108.40952468 -1.0771528 97.26190896 C-1.08648921 85.83182861 -1.09198068 74.40175245 -1.09408849 62.97166818 C-1.09539604 56.54803777 -1.09848461 50.12441901 -1.10573006 43.70079231 C-1.11248627 37.66233707 -1.11461778 31.62389835 -1.11310768 25.58543968 C-1.11338419 23.36214229 -1.11539167 21.13884437 -1.11920547 18.91555023 C-1.12413649 15.89432741 -1.12300049 12.87316808 -1.12025452 9.85194397 C-1.12316736 8.9599387 -1.1260802 8.06793344 -1.12908131 7.14889771 C-1.11412121 1.11412121 -1.11412121 1.11412121 0 0 Z " fill="#CFD1D4" transform="translate(251,25)"/>
<path d="M0 0 C1.63061523 1.66967773 1.63061523 1.66967773 3.05859375 3.68359375 C3.60209473 4.43664795 4.1455957 5.18970215 4.70556641 5.96557617 C5.27710449 6.78131104 5.84864258 7.5970459 6.4375 8.4375 C7.6833064 10.17208141 8.92940849 11.90645049 10.17578125 13.640625 C10.8095166 14.53072266 11.44325195 15.42082031 12.09619141 16.33789062 C15.06284165 20.4861792 18.09387451 24.58621799 21.125 28.6875 C21.70693115 29.47761475 22.2888623 30.26772949 22.88842773 31.08178711 C27.04643554 36.7249224 31.24257219 42.33834623 35.45922852 47.93774414 C39.96776431 53.93344723 44.39928588 59.98470954 48.82861328 66.0390625 C53.00537689 71.72179767 57.30721963 77.28883135 61.80102539 82.72509766 C65 86.67716547 65 86.67716547 65 90 C59.6507556 89.37521949 54.75996175 88.16222357 49.625 86.5625 C47.85810403 86.0220337 46.09117434 85.4816776 44.32421875 84.94140625 C43.33599121 84.63734863 42.34776367 84.33329102 41.32958984 84.02001953 C37.56272208 82.86603995 33.79158699 81.72672383 30.01953125 80.58984375 C14.61556622 75.94454419 -0.76359445 71.23465921 -16.08789062 66.33203125 C-40.29789864 58.59734725 -64.6745559 51.3901328 -89.02157593 44.10140991 C-100.37958451 40.7005021 -111.72102388 37.25274178 -123.04614258 33.74365234 C-133.99191054 30.36343405 -144.99180973 27.17007061 -156 24 C-156 23.01 -156 22.02 -156 21 C-152.82598262 19.41299131 -149.32590981 19.2680509 -145.83984375 18.796875 C-143.91249035 18.52876505 -141.98525417 18.25981174 -140.05810547 17.99023438 C-138.95311707 17.83611084 -137.84812866 17.6819873 -136.70965576 17.52319336 C-129.34559636 16.48459915 -121.98765642 15.40358133 -114.62890625 14.328125 C-112.9333556 14.08048902 -111.23780403 13.8328593 -109.54225159 13.5852356 C-106.02425145 13.0713626 -102.50630186 12.55714499 -98.9883728 12.04278564 C-95.3449779 11.51020903 -91.70143705 10.97864697 -88.05776978 10.44793701 C-61.79733304 6.62764749 -61.79733304 6.62764749 -35.5703125 2.5859375 C-34.47087814 2.41271973 -33.37144379 2.23950195 -32.23869324 2.06103516 C-27.3671124 1.29259058 -22.49834835 0.51140774 -17.63305664 -0.29589844 C-15.97810909 -0.55975801 -14.32308549 -0.82314127 -12.66796875 -1.0859375 C-11.94799713 -1.21126862 -11.22802551 -1.33659973 -10.48623657 -1.46572876 C-6.37970478 -2.10142703 -3.62894298 -2.11207686 0 0 Z " fill="#ECECEC" transform="translate(177,168)"/>
<path d="M0 0 C0.66 0 1.32 0 2 0 C2 76.23 2 152.46 2 231 C0.35 230.67 -1.3 230.34 -3 230 C-3 229.34 -3 228.68 -3 228 C-2.01 227.67 -1.02 227.34 0 227 C0 152.09 0 77.18 0 0 Z " fill="#D1D1D1" transform="translate(246,25)"/>
<path d="M0 0 C0.33 0 0.66 0 1 0 C1 4.29 1 8.58 1 13 C1.66 13 2.32 13 3 13 C3.16839208 15.89574234 3.33477385 18.79157674 3.5 21.6875 C3.54769531 22.50412109 3.59539062 23.32074219 3.64453125 24.16210938 C3.86849844 28.11353058 4.06451833 32.04018757 4 36 C8.22915948 32.0196146 11.59894181 27.69707344 15 23 C15.71285156 22.02289063 16.42570312 21.04578125 17.16015625 20.0390625 C19.11091908 17.36235442 21.0571782 14.68247477 23 12 C23.99 12.33 24.98 12.66 26 13 C25.32453125 13.94101563 24.6490625 14.88203125 23.953125 15.8515625 C23.05203196 17.1093382 22.15099319 18.36715277 21.25 19.625 C20.8065625 20.24246094 20.363125 20.85992187 19.90625 21.49609375 C19.46796875 22.10839844 19.0296875 22.72070312 18.578125 23.3515625 C17.92553711 24.26276855 17.92553711 24.26276855 17.25976562 25.19238281 C16.05524661 26.92072754 14.92438843 28.68180917 13.796875 30.4609375 C13.20390625 31.29882812 12.6109375 32.13671875 12 33 C11.34 33 10.68 33 10 33 C9.5978125 34.0828125 9.5978125 34.0828125 9.1875 35.1875 C7.97688703 38.05474124 6.87058614 40.50588515 5 43 C2.525 43.495 2.525 43.495 0 44 C0 29.48 0 14.96 0 0 Z " fill="#B4B7BB" transform="translate(250,212)"/>
<path d="M0 0 C0.33 0 0.66 0 1 0 C3.00973283 26.42171397 3.01387143 52.53071369 2 79 C1.97381592 79.68902405 1.94763184 80.3780481 1.9206543 81.08795166 C1.66537655 87.72829117 1.36904642 94.36501647 1 101 C0.67 101 0.34 101 0 101 C0 67.67 0 34.34 0 0 Z " fill="#F1F2F4" transform="translate(252,70)"/>
<path d="M0 0 C0.99 0.33 1.98 0.66 3 1 C3 42.91 3 84.82 3 128 C2.67 128 2.34 128 2 128 C1.67 87.74 1.34 47.48 1 6 C-0.65 6.33 -2.3 6.66 -4 7 C-1.125 1.125 -1.125 1.125 0 0 Z " fill="#D4D4D4" transform="translate(245,271)"/>
<path d="M0 0 C0.495 1.485 0.495 1.485 1 3 C-0.28965176 4.37562854 -1.62689293 5.70766393 -3 7 C-3.66 7 -4.32 7 -5 7 C-5.66 8.32 -6.32 9.64 -7 11 C-7.66 11 -8.32 11 -9 11 C-9.33 11.99 -9.66 12.98 -10 14 C-10.66 14 -11.32 14 -12 14 C-12.24105469 14.5671875 -12.48210937 15.134375 -12.73046875 15.71875 C-15.71015381 21.07301485 -20.99569514 25.40566659 -25.75 29.1875 C-28.63100678 31.50831101 -30.67234253 34.12105523 -33 37 C-33.98290968 38.01680311 -34.97334787 39.02738219 -36 40 C-36.99 39.67 -37.98 39.34 -39 39 C-36.44493925 35.08756323 -34.02740157 31.86637882 -30.4296875 28.875 C-24.44896746 23.74485605 -19.0377396 18.0478381 -13.5390625 12.41210938 C-12.724375 11.58646484 -11.9096875 10.76082031 -11.0703125 9.91015625 C-10.33570801 9.15871338 -9.60110352 8.40727051 -8.84423828 7.63305664 C-7 6 -7 6 -5 6 C-4.731875 5.38125 -4.46375 4.7625 -4.1875 4.125 C-3 2 -3 2 0 0 Z " fill="#E7E9EA" transform="translate(456,218)"/>
<path d="M0 0 C0.33 0 0.66 0 1 0 C1 4.29 1 8.58 1 13 C1.66 13 2.32 13 3 13 C3.19644384 14.89492746 3.38177288 16.79100903 3.5625 18.6875 C3.66691406 19.74324219 3.77132812 20.79898438 3.87890625 21.88671875 C3.99481966 24.86681503 3.63504285 27.10702701 3 30 C2.78301513 32.43505237 2.59709255 34.87301384 2.4375 37.3125 C2.35371094 38.56675781 2.26992187 39.82101563 2.18359375 41.11328125 C2.12300781 42.06589844 2.06242188 43.01851562 2 44 C1.34 44 0.68 44 0 44 C0 29.48 0 14.96 0 0 Z " fill="#76787B" transform="translate(250,212)"/>
<path d="M0 0 C0.99 0.33 1.98 0.66 3 1 C4.1875 3.5625 4.1875 3.5625 5 6 C3.35 5.67 1.7 5.34 0 5 C0.15629883 5.87108398 0.31259766 6.74216797 0.47363281 7.63964844 C1.28584545 12.82485011 1.49495988 18.01234684 1.75 23.25 C1.81832031 24.35085938 1.88664063 25.45171875 1.95703125 26.5859375 C2.00730469 27.63523437 2.05757812 28.68453125 2.109375 29.765625 C2.18623535 31.20083496 2.18623535 31.20083496 2.26464844 32.66503906 C2.17731445 33.43557617 2.08998047 34.20611328 2 35 C1.01 35.66 0.02 36.32 -1 37 C-1.0246501 31.89136104 -1.04283607 26.78275641 -1.05493164 21.67407227 C-1.05997204 19.93480832 -1.0668043 18.19554864 -1.07543945 16.45629883 C-1.08751792 13.96174063 -1.09323108 11.46723827 -1.09765625 8.97265625 C-1.10281754 8.19036148 -1.10797882 7.40806671 -1.11329651 6.60206604 C-1.11349226 4.73432886 -1.06199694 2.86670796 -1 1 C-0.67 0.67 -0.34 0.34 0 0 Z " fill="#B8BBC3" transform="translate(252,272)"/>
<path d="M0 0 C0.66 0 1.32 0 2 0 C1.43284951 4.23063609 -0.02112718 6.96422479 -2.375 10.5 C-4.19370905 13.25515072 -5.98112618 15.96648746 -7.6015625 18.84375 C-8.29378906 19.91109375 -8.29378906 19.91109375 -9 21 C-9.66 21 -10.32 21 -11 21 C-11 21.99 -11 22.98 -11 24 C-11.99 24 -12.98 24 -14 24 C-12.33994727 19.18961992 -9.71778563 15.13804089 -7 10.875 C-6.54882812 10.15957031 -6.09765625 9.44414062 -5.6328125 8.70703125 C-3.78522047 5.78258825 -1.91895637 2.87843455 0 0 Z " fill="#ECECED" transform="translate(170,375)"/>
<path d="M0 0 C-0.66 0.66 -1.32 1.32 -2 2 C-2.99 1.67 -3.98 1.34 -5 1 C-5 1.66 -5 2.32 -5 3 C-15.37357631 6.44419134 -15.37357631 6.44419134 -21 6 C-21 6.66 -21 7.32 -21 8 C-22.62171239 8.38897161 -24.24754925 8.76078298 -25.875 9.125 C-26.77992188 9.33382813 -27.68484375 9.54265625 -28.6171875 9.7578125 C-29.40351563 9.83773438 -30.18984375 9.91765625 -31 10 C-31.66 9.34 -32.32 8.68 -33 8 C-28.78583026 6.68879825 -24.56834777 5.38906097 -20.34741211 4.09985352 C-18.91187485 3.65963507 -17.47729165 3.21629287 -16.04370117 2.76977539 C-13.98338528 2.12864559 -11.91990414 1.4988127 -9.85546875 0.87109375 C-8.61434326 0.48880615 -7.37321777 0.10651855 -6.09448242 -0.28735352 C-3 -1 -3 -1 0 0 Z " fill="#81848D" transform="translate(311,247)"/>
<path d="M0 0 C4.64080887 2.09691569 7.73327953 5.32828506 11.3125 8.875 C12.29959961 9.81279297 12.29959961 9.81279297 13.30664062 10.76953125 C13.92345703 11.37925781 14.54027344 11.98898438 15.17578125 12.6171875 C15.74208252 13.17003418 16.30838379 13.72288086 16.8918457 14.29248047 C18 16 18 16 17.67651367 18.21142578 C17.45326416 18.80165527 17.23001465 19.39188477 17 20 C14.15456244 17.24136787 11.32585243 14.46618001 8.5 11.6875 C7.68917969 10.90181641 6.87835938 10.11613281 6.04296875 9.30664062 C5.27597656 8.54931641 4.50898437 7.79199219 3.71875 7.01171875 C3.00654297 6.31522217 2.29433594 5.61872559 1.56054688 4.90112305 C0 3 0 3 0 0 Z " fill="#BFBFC0" transform="translate(65,241)"/>
<path d="M0 0 C7.78593716 1.61088355 15.37428218 3.76543688 23 6 C20.48168798 7.64658863 19.22064279 8.01925276 16.1796875 7.75390625 C12.77524603 6.94671067 9.46092108 5.99274034 6.125 4.9375 C4.97257812 4.57527344 3.82015625 4.21304688 2.6328125 3.83984375 C1.76398437 3.56269531 0.89515625 3.28554687 0 3 C0 2.01 0 1.02 0 0 Z " fill="#BABABA" transform="translate(57,206)"/>
<path d="M0 0 C3.9913131 3.5436892 6.50654225 7.73605498 9.25 12.25 C9.70890625 12.99507813 10.1678125 13.74015625 10.640625 14.5078125 C11.76536087 16.33550829 12.8833601 18.16734673 14 20 C13.34 20.99 12.68 21.98 12 23 C11.50802124 22.23538452 11.50802124 22.23538452 11.00610352 21.45532227 C9.52619201 19.15688144 8.0443721 16.8596772 6.5625 14.5625 C6.04623047 13.76005859 5.52996094 12.95761719 4.99804688 12.13085938 C4.50498047 11.36708984 4.01191406 10.60332031 3.50390625 9.81640625 C3.04830322 9.10943604 2.5927002 8.40246582 2.12329102 7.67407227 C1.10625943 6.04186475 1.10625943 6.04186475 0 5 C-0.04063832 3.33382885 -0.042721 1.66611905 0 0 Z " fill="#A0A5AE" transform="translate(258,280)"/>
<path d="M0 0 C0.33 0 0.66 0 1 0 C2.25676377 9.98678356 2.09367165 19.95631733 2 30 C1.34 30.33 0.68 30.66 0 31 C-0.79267016 21.02084892 -1.46639898 11.01386043 -1 1 C-0.67 0.67 -0.34 0.34 0 0 Z " fill="#C6C9CD" transform="translate(252,308)"/>
<path d="M0 0 C6.93 1.98 13.86 3.96 21 6 C20.01 6.495 20.01 6.495 19 7 C18.67 7.66 18.34 8.32 18 9 C15.1806645 8.27050068 12.37137657 7.51789431 9.5625 6.75 C8.76005859 6.54503906 7.95761719 6.34007812 7.13085938 6.12890625 C5.98520508 5.80986328 5.98520508 5.80986328 4.81640625 5.484375 C4.10943604 5.29584961 3.40246582 5.10732422 2.67407227 4.91308594 C2.12162842 4.61176758 1.56918457 4.31044922 1 4 C0.67 2.68 0.34 1.36 0 0 Z " fill="#C1C1C1" transform="translate(131,228)"/>
<path d="M0 0 C-1.50098594 3.11743233 -3.02431822 6.15501823 -5 9 C-5.99 9 -6.98 9 -8 9 C-7.34 7.35 -6.68 5.7 -6 4 C-8.31 4.66 -10.62 5.32 -13 6 C-13 5.01 -13 4.02 -13 3 C-11.5903653 2.29819469 -10.17192359 1.61406042 -8.75 0.9375 C-7.96109375 0.55464844 -7.1721875 0.17179687 -6.359375 -0.22265625 C-3.74006478 -1.08564091 -2.55144824 -0.93045933 0 0 Z " fill="#C2C6CA" transform="translate(243,269)"/>
<path d="M0 0 C2.60607392 0.61778047 5.20965697 1.24387211 7.8125 1.875 C8.55048828 2.04902344 9.28847656 2.22304687 10.04882812 2.40234375 C13.49717037 3.24492511 16.01928362 4.01285575 19 6 C18.34 6 17.68 6 17 6 C16.67 6.66 16.34 7.32 16 8 C10.72 6.35 5.44 4.7 0 3 C0 2.01 0 1.02 0 0 Z " fill="#BDBDBD" transform="translate(110,222)"/>
<path d="M0 0 C0 0.66 0 1.32 0 2 C-1.8708878 2.67812114 -3.74694293 3.3419946 -5.625 4 C-6.66914063 4.37125 -7.71328125 4.7425 -8.7890625 5.125 C-12.05980103 6.01629614 -14.62969933 6.3090247 -18 6 C-18.66 5.34 -19.32 4.68 -20 4 C-17.23208055 3.13521219 -14.46134374 2.28288326 -11.6875 1.4375 C-10.90181641 1.19064453 -10.11613281 0.94378906 -9.30664062 0.68945312 C-8.54931641 0.46064453 -7.79199219 0.23183594 -7.01171875 -0.00390625 C-5.96697388 -0.32597046 -5.96697388 -0.32597046 -4.90112305 -0.65454102 C-3 -1 -3 -1 0 0 Z " fill="#BABABA" transform="translate(413,216)"/>
<path d="M0 0 C-1.39347376 3.15204981 -3.02485079 5.26171773 -5.4765625 7.671875 C-6.48203125 8.66767578 -6.48203125 8.66767578 -7.5078125 9.68359375 C-8.20648438 10.36550781 -8.90515625 11.04742187 -9.625 11.75 C-10.33140625 12.44738281 -11.0378125 13.14476562 -11.765625 13.86328125 C-13.50598703 15.58012488 -15.25084981 17.29211832 -17 19 C-17.66 18.34 -18.32 17.68 -19 17 C-16.21641519 14.15862758 -13.42184273 11.32831845 -10.625 8.5 C-9.43390625 7.28376953 -9.43390625 7.28376953 -8.21875 6.04296875 C-7.45820313 5.27597656 -6.69765625 4.50898438 -5.9140625 3.71875 C-5.2123291 3.00654297 -4.5105957 2.29433594 -3.78759766 1.56054688 C-2 0 -2 0 0 0 Z " fill="#C9D0D3" transform="translate(418,257)"/>
<path d="M0 0 C4.55744786 3.90638388 7.74745236 8.96942836 8.25 15 C8.1675 15.66 8.085 16.32 8 17 C7.34 17 6.68 17 6 17 C2.91099799 11.33492989 0.42335385 6.49142565 0 0 Z " fill="#EEEEEE" transform="translate(291,108)"/>
<path d="M0 0 C5.39795989 1.15058556 10.70987333 2.42421759 16 4 C15.01 4.495 15.01 4.495 14 5 C13.67 5.66 13.34 6.32 13 7 C8.71 5.68 4.42 4.36 0 3 C0 2.01 0 1.02 0 0 Z " fill="#C0C0C1" transform="translate(80,213)"/>
<path d="M0 0 C5.39795989 1.15058556 10.70987333 2.42421759 16 4 C15.01 4.33 14.02 4.66 13 5 C12.67 5.66 12.34 6.32 12 7 C8.04 5.68 4.08 4.36 0 3 C0 2.01 0 1.02 0 0 Z " fill="#B9B9B9" transform="translate(192,247)"/>
<path d="M0 0 C-1.33182886 2.89943603 -2.8329463 5.16877099 -4.9375 7.5625 C-5.44152344 8.14128906 -5.94554687 8.72007812 -6.46484375 9.31640625 C-7.9331568 10.92669359 -9.44541345 12.47325679 -11 14 C-11.99 13.67 -12.98 13.34 -14 13 C-5.42 0 -5.42 0 0 0 Z " fill="#D8DCDF" transform="translate(431,244)"/>
<path d="M0 0 C3.63 0 7.26 0 11 0 C9.515 2.475 9.515 2.475 8 5 C3.545 4.01 3.545 4.01 -1 3 C-0.67 2.01 -0.34 1.02 0 0 Z " fill="#C6C6C7" transform="translate(23,188)"/>
<path d="M0 0 C0.99 0.66 1.98 1.32 3 2 C1.88368586 3.83863505 0.75670373 5.67079723 -0.375 7.5 C-1.00148437 8.5209375 -1.62796875 9.541875 -2.2734375 10.59375 C-2.84320313 11.3878125 -3.41296875 12.181875 -4 13 C-4.66 13 -5.32 13 -6 13 C-6.33 13.66 -6.66 14.32 -7 15 C-6.68383092 8.83470299 -3.50784939 4.82731567 0 0 Z " fill="#BCC0C5" transform="translate(225,291)"/>
<path d="M0 0 C5.39795989 1.15058556 10.70987333 2.42421759 16 4 C15.34 4.66 14.68 5.32 14 6 C8.99322638 5.66621509 4.71898372 4.76961889 0 3 C0 2.01 0 1.02 0 0 Z " fill="#B9B9B9" transform="translate(215,254)"/>
<path d="M0 0 C5.98808129 1.31445687 9.03429323 4.61191026 13 9 C12.01 10.485 12.01 10.485 11 12 C9.66070495 10.71451591 8.32871357 9.42141845 7 8.125 C6.2575 7.40570313 5.515 6.68640625 4.75 5.9453125 C3 4 3 4 3 2 C2.01 1.67 1.02 1.34 0 1 C0 0.67 0 0.34 0 0 Z " fill="#B8B8B9" transform="translate(100,278)"/>
<path d="M0 0 C2.19219402 2.36689329 2.9871902 3.51727269 3.07421875 6.796875 C2.94660156 7.77140625 2.81898437 8.7459375 2.6875 9.75 C2.56761719 10.73484375 2.44773437 11.7196875 2.32421875 12.734375 C2.21722656 13.48203125 2.11023438 14.2296875 2 15 C1.01 14.67 0.02 14.34 -1 14 C-1.08333357 9.1666528 -0.95261487 4.76307437 0 0 Z " fill="#A7A7A8" transform="translate(124,364)"/>
<path d="M0 0 C0.33 0 0.66 0 1 0 C1.33 5.94 1.66 11.88 2 18 C0.02 18.99 0.02 18.99 -2 20 C-1.34 13.4 -0.68 6.8 0 0 Z " fill="#8B8B8C" transform="translate(127,342)"/>
<path d="M0 0 C0.99 0.33 1.98 0.66 3 1 C1.69181533 3.16938141 0.37874076 5.3355152 -0.9375 7.5 C-1.31068359 8.12003906 -1.68386719 8.74007813 -2.06835938 9.37890625 C-3.0181984 10.93629997 -4.00613311 12.4703275 -5 14 C-5.33 14 -5.66 14 -6 14 C-5.5414571 8.26821381 -4.14522 4.14522 0 0 Z " fill="#B8BEC2" transform="translate(234,278)"/>
<path d="M0 0 C2.84967409 3.62685793 4.79513212 6.36105693 5.375 11 C4.91813151 14.65494791 3.80494773 15.72097997 1 18 C1.09539062 17.38511719 1.19078125 16.77023438 1.2890625 16.13671875 C1.39992188 15.32847656 1.51078125 14.52023438 1.625 13.6875 C1.79902344 12.48673828 1.79902344 12.48673828 1.9765625 11.26171875 C2.21533407 8.71276785 2.21533407 8.71276785 0 6 C-0.125 2.8125 -0.125 2.8125 0 0 Z " fill="#C2C5CB" transform="translate(314,153)"/>
<path d="M0 0 C0.66 0 1.32 0 2 0 C2.84584998 1.55575978 3.67618399 3.1199612 4.5 4.6875 C5.19609375 5.99267578 5.19609375 5.99267578 5.90625 7.32421875 C7.04818792 10.11788829 7.21504208 12.01629113 7 15 C4.47138427 12.73946101 3.16143472 10.60099936 1.8125 7.5 C1.46832031 6.7265625 1.12414062 5.953125 0.76953125 5.15625 C0 3 0 3 0 0 Z " fill="#E1E2E6" transform="translate(307,141)"/>
<path d="M0 0 C3.04516202 2.83332467 5.16868601 5.65500311 7.25 9.25 C8.03117187 10.58804687 8.03117187 10.58804687 8.828125 11.953125 C9.21484375 12.62859375 9.6015625 13.3040625 10 14 C9.34 14 8.68 14 8 14 C7.67 14.66 7.34 15.32 7 16 C6.67 14.35 6.34 12.7 6 11 C5.34 11 4.68 11 4 11 C3.71125 10.38125 3.4225 9.7625 3.125 9.125 C2.06279958 6.86674235 2.06279958 6.86674235 0 5 C-0.125 2.375 -0.125 2.375 0 0 Z " fill="#9FA3A7" transform="translate(276,308)"/>
<path d="M0 0 C6.45054982 1.35253464 12.71105679 3.03060233 19 5 C19 5.33 19 5.66 19 6 C12.46789888 5.61182186 6.98304396 4.71956543 1 2 C0.67 1.34 0.34 0.68 0 0 Z " fill="#F7F7F7" transform="translate(56,200)"/>
<path d="M0 0 C4.35829792 0.50288053 6.94936634 3.0171582 10 6 C10.875 8.8125 10.875 8.8125 11 11 C6.33248206 8.17777985 3.29395862 5.35965111 0 1 C0 0.67 0 0.34 0 0 Z " fill="#DADADA" transform="translate(50,228)"/>
<path d="M0 0 C0.33 0 0.66 0 1 0 C1.33 3.96 1.66 7.92 2 12 C0.68 11.67 -0.64 11.34 -2 11 C-3.25 8.4375 -3.25 8.4375 -4 6 C-3.01 5.67 -2.02 5.34 -1 5 C-0.67 3.35 -0.34 1.7 0 0 Z " fill="#B5B6B6" transform="translate(386,457)"/>
<path d="M0 0 C2.65664779 0.15180845 4.45217862 0.52011425 6.48046875 2.296875 C7.875 3.875 7.875 3.875 10 7 C9.67 7.99 9.34 8.98 9 10 C7.49702124 8.52386015 5.99768715 7.04400843 4.5 5.5625 C3.6646875 4.73878906 2.829375 3.91507812 1.96875 3.06640625 C0 1 0 1 0 0 Z " fill="#B7B8B8" transform="translate(83,261)"/>
<path d="M0 0 C0.33 0 0.66 0 1 0 C1 7.26 1 14.52 1 22 C-0.65 21.67 -2.3 21.34 -4 21 C-4 20.34 -4 19.68 -4 19 C-3.01 18.67 -2.02 18.34 -1 18 C-0.505 9.09 -0.505 9.09 0 0 Z " fill="#CACBCD" transform="translate(247,234)"/>
<path d="M0 0 C0.99 0.33 1.98 0.66 3 1 C1.02 3.97 -0.96 6.94 -3 10 C-4.32 9.67 -5.64 9.34 -7 9 C-4.69 6.03 -2.38 3.06 0 0 Z " fill="#BCC0C5" transform="translate(273,224)"/>
<path d="M0 0 C-2.53645881 3.10011632 -5.15184135 4.0575938 -9 5 C-11.375 4.625 -11.375 4.625 -13 4 C-9.80252047 -0.13791468 -4.89181987 -1.63060662 0 0 Z " fill="#BABABA" transform="translate(445,206)"/>
<path d="M0 0 C2.72574271 0.37330824 3.80822085 0.79194601 5.703125 2.84765625 C6.21359375 3.57855469 6.7240625 4.30945313 7.25 5.0625 C8.03117188 6.16271484 8.03117188 6.16271484 8.828125 7.28515625 C9.21484375 7.85105469 9.6015625 8.41695312 10 9 C8.35 8.67 6.7 8.34 5 8 C4.67 6.68 4.34 5.36 4 4 C3.34 4 2.68 4 2 4 C1.34 2.68 0.68 1.36 0 0 Z " fill="#E0E1E1" transform="translate(205,211)"/>
<path d="M0 0 C3.67033927 3.27708863 5.69281189 6.71522208 8 11 C4.1281583 9.74426756 1.97161329 8.63191921 0 5 C-0.1875 2.25 -0.1875 2.25 0 0 Z " fill="#90949A" transform="translate(258,280)"/>
<path d="M0 0 C1.41750563 0.11509661 2.83401169 0.24253658 4.25 0.375 C5.03890625 0.44460937 5.8278125 0.51421875 6.640625 0.5859375 C9.085877 1.01507113 10.84836903 1.78600638 13 3 C4.57142857 4.42857143 4.57142857 4.42857143 0 2 C0 1.34 0 0.68 0 0 Z " fill="#C0C0C0" transform="translate(67,210)"/>
<path d="M0 0 C0.33 0 0.66 0 1 0 C1.33 3.63 1.66 7.26 2 11 C1.67 11 1.34 11 1 11 C0.67 12.65 0.34 14.3 0 16 C-0.33 16 -0.66 16 -1 16 C-1.02685095 13.52076199 -1.04676547 11.0418116 -1.0625 8.5625 C-1.07506836 7.50192383 -1.07506836 7.50192383 -1.08789062 6.41992188 C-1.09653588 4.61306441 -1.05220011 2.80612397 -1 1 C-0.67 0.67 -0.34 0.34 0 0 Z " fill="#B8BDCE" transform="translate(252,308)"/>
<path d="M0 0 C-0.99 0.33 -1.98 0.66 -3 1 C-3 1.66 -3 2.32 -3 3 C-7.455 4.485 -7.455 4.485 -12 6 C-12 5.01 -12 4.02 -12 3 C-10.5682384 2.30062798 -9.12932968 1.61587282 -7.6875 0.9375 C-6.48673828 0.36322266 -6.48673828 0.36322266 -5.26171875 -0.22265625 C-3 -1 -3 -1 0 0 Z " fill="#898C8E" transform="translate(242,269)"/>
<path d="M0 0 C2.5 2.3125 2.5 2.3125 5 5 C5 5.99 5 6.98 5 8 C3.35 8 1.7 8 0 8 C0 5.33333333 0 2.66666667 0 0 Z " fill="#CECFD1" transform="translate(237,250)"/>
<path d="M0 0 C0.99 0.495 0.99 0.495 2 1 C2.4140625 3.72265625 2.4140625 3.72265625 2.625 7.0625 C2.69976562 8.16722656 2.77453125 9.27195313 2.8515625 10.41015625 C2.90054688 11.26480469 2.94953125 12.11945313 3 13 C2.01 13.33 1.02 13.66 0 14 C0 9.38 0 4.76 0 0 Z " fill="#B8BBC4" transform="translate(252,242)"/>
<path d="M0 0 C5.445 1.485 5.445 1.485 11 3 C10.01 3.495 10.01 3.495 9 4 C8.67 4.66 8.34 5.32 8 6 C5.69 5.34 3.38 4.68 1 4 C0.67 2.68 0.34 1.36 0 0 Z " fill="#A3A3A3" transform="translate(131,228)"/>
<path d="M0 0 C4.455 0.99 4.455 0.99 9 2 C9 2.33 9 2.66 9 3 C7.35 3 5.7 3 4 3 C3.67 4.32 3.34 5.64 3 7 C1.68 5.68 0.36 4.36 -1 3 C-0.67 2.01 -0.34 1.02 0 0 Z " fill="#8A8B8B" transform="translate(18,194)"/>
<path d="M0 0 C3.67420866 0.30618405 4.78135513 0.75771784 7.3125 3.5625 C8.1478125 4.7690625 8.1478125 4.7690625 9 6 C8.34 6.66 7.68 7.32 7 8 C5.83035398 6.8572081 4.66435444 5.71068285 3.5 4.5625 C2.8503125 3.92441406 2.200625 3.28632813 1.53125 2.62890625 C0 1 0 1 0 0 Z " fill="#B7B8B9" transform="translate(116,294)"/>
<path d="M0 0 C0 0.66 0 1.32 0 2 C-1.62171239 2.38897161 -3.24754925 2.76078298 -4.875 3.125 C-5.77992188 3.33382813 -6.68484375 3.54265625 -7.6171875 3.7578125 C-8.40351563 3.83773438 -9.18984375 3.91765625 -10 4 C-10.66 3.34 -11.32 2.68 -12 2 C-7.82262526 0.40861915 -4.46839215 -0.21278058 0 0 Z " fill="#8B8D90" transform="translate(290,253)"/>
<path d="M0 0 C5.445 1.485 5.445 1.485 11 3 C10.01 3.495 10.01 3.495 9 4 C8.67 4.66 8.34 5.32 8 6 C4.5625 4.6875 4.5625 4.6875 1 3 C0.67 2.01 0.34 1.02 0 0 Z " fill="#A0A0A0" transform="translate(98,218)"/>
<path d="M0 0 C1.98 0 3.96 0 6 0 C5.6875 1.9375 5.6875 1.9375 5 4 C2 5 2 5 -1 4 C-0.67 2.68 -0.34 1.36 0 0 Z " fill="#A3A3A8" transform="translate(258,261)"/>
<path d="M0 0 C0 0.66 0 1.32 0 2 C-3.00419641 3.0013988 -5.87709365 3.51421457 -9 4 C-9.33 3.01 -9.66 2.02 -10 1 C-3.375 -1.125 -3.375 -1.125 0 0 Z " fill="#979899" transform="translate(367,230)"/>
<path d="M0 0 C1.15837573 3.47512718 0.77265943 5.13670286 0.0625 8.6875 C-0.22947266 10.17830078 -0.22947266 10.17830078 -0.52734375 11.69921875 C-0.76130859 12.83810547 -0.76130859 12.83810547 -1 14 C-1.33 14 -1.66 14 -2 14 C-2.05389087 12.04196493 -2.09274217 10.08351091 -2.125 8.125 C-2.14820312 7.03445313 -2.17140625 5.94390625 -2.1953125 4.8203125 C-2 2 -2 2 0 0 Z " fill="#F0EEF1" transform="translate(130,340)"/>
<path d="M0 0 C0.99 0.33 1.98 0.66 3 1 C2.67 2.32 2.34 3.64 2 5 C2 4.34 2 3.68 2 3 C1.34 3 0.68 3 0 3 C-0.33 4.32 -0.66 5.64 -1 7 C-1.99 6.67 -2.98 6.34 -4 6 C-2.68 4.02 -1.36 2.04 0 0 Z " fill="#9C9D9E" transform="translate(245,271)"/>
<path d="M0 0 C0.66 0.33 1.32 0.66 2 1 C0.68775452 4.93673644 -0.91910327 7.22719294 -4 10 C-4.33 9.01 -4.66 8.02 -5 7 C-4.00390625 5.17578125 -4.00390625 5.17578125 -2.5625 3.3125 C-2.08941406 2.68988281 -1.61632812 2.06726563 -1.12890625 1.42578125 C-0.75636719 0.95527344 -0.38382812 0.48476562 0 0 Z " fill="#B9BDC4" transform="translate(280,214)"/>
<path d="M0 0 C3.81176471 5.08235294 3.81176471 5.08235294 4 8 C2.625 9.75 2.625 9.75 1 11 C0.67 11 0.34 11 0 11 C0 7.37 0 3.74 0 0 Z " fill="#ADADAD" transform="translate(122,378)"/>
<path d="M0 0 C0.99 0.33 1.98 0.66 3 1 C4.1875 3.5625 4.1875 3.5625 5 6 C2.03 5.505 2.03 5.505 -1 5 C-0.67 3.35 -0.34 1.7 0 0 Z " fill="#8C9094" transform="translate(252,272)"/>
<path d="M0 0 C2.64 0.66 5.28 1.32 8 2 C7.67 3.32 7.34 4.64 7 6 C4.0625 4.6875 4.0625 4.6875 1 3 C0.67 2.01 0.34 1.02 0 0 Z " fill="#9D9EA0" transform="translate(233,259)"/>
<path d="M0 0 C3.16115776 1.36983503 3.9927092 1.9890638 6 5 C5.625 7.1875 5.625 7.1875 5 9 C4.16094435 7.87926138 3.32892169 6.75325453 2.5 5.625 C2.0359375 4.99851562 1.571875 4.37203125 1.09375 3.7265625 C0 2 0 2 0 0 Z " fill="#E7E7E7" transform="translate(334,399)"/>
<path d="M0 0 C0.66 0 1.32 0 2 0 C1.45276317 3.37462715 0.9451 5.08235 -1 8 C-1.99 7.67 -2.98 7.34 -4 7 C-2.68 4.69 -1.36 2.38 0 0 Z " fill="#EDEDEE" transform="translate(154,400)"/>
<path d="M0 0 C-1.52708963 3.43595166 -3.59927045 6.11912454 -6 9 C-5.6875 5.625 -5.6875 5.625 -5 2 C-2 0 -2 0 0 0 Z " fill="#E6E7E7" transform="translate(169,382)"/>
<path d="M0 0 C-0.66 0.66 -1.32 1.32 -2 2 C-2.99 1.67 -3.98 1.34 -5 1 C-5 1.66 -5 2.32 -5 3 C-6.65 3.33 -8.3 3.66 -10 4 C-10 3.01 -10 2.02 -10 1 C-3.375 -1.125 -3.375 -1.125 0 0 Z " fill="#7E8082" transform="translate(311,247)"/>
<path d="M0 0 C4.875 4.625 4.875 4.625 6 8 C3.23737447 7.6189482 2.15856106 7.16402868 0.1875 5.125 C-0.204375 4.42375 -0.59625 3.7225 -1 3 C-0.67 2.01 -0.34 1.02 0 0 Z " fill="#C5C5C5" transform="translate(221,229)"/>
<path d="M0 0 C2.3125 0.1875 2.3125 0.1875 5 1 C6.8125 3.5625 6.8125 3.5625 8 6 C4.08597051 4.73058503 2.20927127 3.48832306 0 0 Z " fill="#B9BBBB" transform="translate(124,302)"/>
<path d="M0 0 C2.98704569 0.49784095 4.39324263 1.26216175 7 3 C7 3.66 7 4.32 7 5 C3.64404172 4.40072174 1.62198774 3.15377564 -1 1 C-0.67 0.67 -0.34 0.34 0 0 Z " fill="#CDCDCD" transform="translate(303,427)"/>
<path d="M0 0 C2.79872437 2.52788007 4.45773019 4.20411134 5 8 C4.01 8 3.02 8 2 8 C0.23537317 4.91190305 0 3.76687864 0 0 Z " fill="#A1A3A6" transform="translate(286,323)"/>
<path d="M0 0 C2.64 0.66 5.28 1.32 8 2 C7.01 3.485 7.01 3.485 6 5 C4.35 4.67 2.7 4.34 1 4 C0.67 2.68 0.34 1.36 0 0 Z " fill="#939393" transform="translate(154,235)"/>
<path d="M0 0 C2.31 0 4.62 0 7 0 C7 0.66 7 1.32 7 2 C4.36 2.33 1.72 2.66 -1 3 C-0.67 2.01 -0.34 1.02 0 0 Z " fill="#D3D3D4" transform="translate(380,224)"/>
<path d="M0 0 C-1.04874998 2.62187494 -1.64931313 3.79371361 -4.125 5.25 C-4.74375 5.4975 -5.3625 5.745 -6 6 C-5.67 4.35 -5.34 2.7 -5 1 C-2 0 -2 0 0 0 Z " fill="#E6E7E9" transform="translate(481,195)"/>
<path d="M0 0 C5.75 1.75 5.75 1.75 8 4 C6.25 4.75 6.25 4.75 4 5 C1.75 3.125 1.75 3.125 0 1 C0 0.67 0 0.34 0 0 Z " fill="#ECECEC" transform="translate(285,417)"/>
<path d="M0 0 C2.5 1.1875 2.5 1.1875 5 3 C5.3125 5.6875 5.3125 5.6875 5 8 C2.20127563 5.47211993 0.54226981 3.79588866 0 0 Z " fill="#E3E3E3" transform="translate(326,387)"/>
<path d="M0 0 C-1.04874998 2.62187494 -1.64931313 3.79371361 -4.125 5.25 C-4.74375 5.4975 -5.3625 5.745 -6 6 C-5.6875 4.125 -5.6875 4.125 -5 2 C-2 0 -2 0 0 0 Z " fill="#B5BAC1" transform="translate(377,298)"/>
<path d="M0 0 C0 0.99 0 1.98 0 3 C-3.32534757 4.10844919 -5.62182575 3.84454356 -9 3 C-5.87496336 0.91664224 -3.72863529 0 0 0 Z " fill="#7F7F82" transform="translate(333,239)"/>
<path d="M0 0 C0 0.99 0 1.98 0 3 C-2.875 3.125 -2.875 3.125 -6 3 C-6.66 2.34 -7.32 1.68 -8 1 C-5.07175348 0.02391783 -3.04386724 -0.08226668 0 0 Z " fill="#A3A3A3" transform="translate(401,219)"/>
<path d="M0 0 C0.99 0.33 1.98 0.66 3 1 C3.33 3.31 3.66 5.62 4 8 C1.10067643 5.60490662 0.49831724 3.68754757 0 0 Z " fill="#E6EAEC" transform="translate(310,148)"/>
<path d="M0 0 C0 0.99 0 1.98 0 3 C-2.97 3 -5.94 3 -9 3 C-5.87496336 0.91664224 -3.72863529 0 0 0 Z " fill="#6B6D6F" transform="translate(277,256)"/>
<path d="M0 0 C-1.25 1.5625 -1.25 1.5625 -3 3 C-5.1875 2.6875 -5.1875 2.6875 -7 2 C-5.26578631 -1.46842738 -3.40984787 -1.13661596 0 0 Z " fill="#BCBCBC" transform="translate(452,204)"/>
<path d="M0 0 C2.375 0.25 2.375 0.25 5 1 C6.3125 3.0625 6.3125 3.0625 7 5 C4.11424181 4.60196439 3.17810487 4.20990931 1.25 1.9375 C0.8375 1.298125 0.425 0.65875 0 0 Z " fill="#D5D5D5" transform="translate(187,187)"/>
<path d="M0 0 C0.66 0.66 1.32 1.32 2 2 C1.8125 4 1.8125 4 1 6 C0.01 6.66 -0.98 7.32 -2 8 C-1.125 2.25 -1.125 2.25 0 0 Z " fill="#909192" transform="translate(244,26)"/>
</svg>
